<?xml version="1.0" encoding="UTF-8"?>
<svg version="1.1" xmlns="http://www.w3.org/2000/svg" width="500" height="500">
<path d="M0 0 C2.2284032 3.3426048 2.03219081 4.1001925 1.3515625 7.8515625 C0.94168389 10.35637624 0.75389784 12.84429526 0.5625 15.375 C0.19733701 19.62364244 -0.52146309 23.60260985 -1.53125 27.73828125 C-2.05061541 30.24421937 -2.28909413 32.70029872 -2.5 35.25 C-2.81371501 38.88573285 -3.54600246 41.63763068 -5 45 C-5.84038396 49.76217579 -6.27547114 54.56225808 -6.71875 59.375 C-7.77014035 69.18797663 -9.50696548 78.94806006 -11.01123047 88.69921875 C-11.33869194 90.82690049 -11.66452263 92.95483382 -11.98876953 95.08300781 C-12.45736927 98.15751388 -12.93123053 101.23116762 -13.40625 104.3046875 C-13.62347717 105.7404866 -13.62347717 105.7404866 -13.84509277 107.20529175 C-13.98193481 108.08355621 -14.11877686 108.96182068 -14.25976562 109.86669922 C-14.37888306 110.64278534 -14.49800049 111.41887146 -14.62072754 112.21847534 C-15 114 -15 114 -16 115 C-16.19100371 116.70387433 -16.32572126 118.41410092 -16.4375 120.125 C-16.98582029 127.4654168 -17.9746741 134.71321786 -19 142 C-15.33445897 143.15746602 -11.90230354 143.10718502 -8.07592773 143.08178711 C-7.387659 143.07872055 -6.69939026 143.07565399 -5.99026489 143.07249451 C-4.50011969 143.06535643 -3.00998391 143.05597534 -1.51986504 143.04459953 C0.83783213 143.0271855 3.19546132 143.01690311 5.5532074 143.00868225 C12.25518214 142.98424472 18.95706487 142.9485797 25.65893555 142.90405273 C29.76135086 142.87729422 33.86371365 142.86023677 37.96619987 142.84918404 C39.52953984 142.84297095 41.09286945 142.8329615 42.65616035 142.81910515 C44.83928256 142.79992128 47.02212723 142.79299778 49.20532227 142.78881836 C51.06919334 142.77763222 51.06919334 142.77763222 52.97071838 142.76622009 C56 143 56 143 59 145 C57.39549301 150.87674849 54.42534845 155.78369314 51.375 161 C50.83738037 161.92973633 50.29976074 162.85947266 49.74584961 163.81738281 C48.66676152 165.68347743 47.58565968 167.54840918 46.50244141 169.41210938 C44.5069445 172.84926687 42.53226571 176.29805359 40.5625 179.75 C39.93730469 180.843125 39.31210937 181.93625 38.66796875 183.0625 C37.21840219 185.61536663 35.79042873 188.17811687 34.375 190.75 C32.74767692 193.70240311 31.04146592 196.58992558 29.28125 199.46484375 C25.67132297 205.46302887 22.40390106 211.62909435 19.125 217.8125 C14.82806367 225.86451863 10.49581918 233.80914983 5.55078125 241.484375 C3.94637783 243.99902795 3.94637783 243.99902795 2.625 246.78515625 C0.54271036 250.90468599 -1.87570544 254.77039811 -4.3125 258.6875 C-7.92440536 264.53706223 -11.37854115 270.41570568 -14.60546875 276.48828125 C-16.68109705 280.22673782 -19.01964063 283.78505935 -21.33984375 287.375 C-23.73291873 291.15887385 -25.87481363 295.06132126 -28 299 C-31.1538509 304.84513701 -34.52678528 310.47906337 -38.125 316.0625 C-40.06395155 319.10019076 -41.94067724 322.17054965 -43.8125 325.25 C-47.99904483 332.07040993 -52.37542947 338.75190378 -56.88525391 345.36279297 C-57.86352195 346.79955721 -58.82927972 348.24482293 -59.79296875 349.69140625 C-63.32336455 354.76464854 -63.32336455 354.76464854 -66.875 356 C-67.57625 356 -68.2775 356 -69 356 C-68.28810907 346.5650722 -66.48132906 337.40012697 -64.6875 328.125 C-64.3678572 326.4548113 -64.04852293 324.78456353 -63.72949219 323.11425781 C-61.97987224 313.97560297 -60.21881614 304.83829965 -58.33081055 295.72705078 C-57.35535066 290.97379489 -56.50614012 286.20229382 -55.67578125 281.421875 C-54.46714517 274.48371922 -53.15897192 267.56814705 -51.80859375 260.65625 C-51.61611053 259.66763977 -51.42362732 258.67902954 -51.22531128 257.66046143 C-50.43095489 253.58264761 -49.63589648 249.50500643 -48.83129883 245.42919922 C-46.37634492 232.97445938 -44.28107421 220.63287828 -43 208 C-43.8533342 208.00666183 -44.7066684 208.01332367 -45.58586121 208.02018738 C-53.63400417 208.08033832 -61.68207147 208.12599466 -69.73038769 208.15543652 C-73.86796356 208.17108182 -78.00535343 208.19229917 -82.14282227 208.22631836 C-86.13691851 208.25895259 -90.13083602 208.27686156 -94.12505531 208.28463173 C-95.64767584 208.29016797 -97.17028675 208.300979 -98.69283104 208.31719017 C-100.8282307 208.33901914 -102.9628951 208.34196474 -105.09838867 208.34057617 C-106.92040047 208.35056892 -106.92040047 208.35056892 -108.77922058 208.36076355 C-112.2719394 207.96953973 -114.16660701 207.02536886 -117 205 C-115.95871516 198.44498034 -114.05789175 193.83105497 -110.25 188.4375 C-105.48298661 181.38553843 -101.07735824 174.17891688 -96.8125 166.8125 C-95.91688354 165.2663501 -95.91688354 165.2663501 -95.00317383 163.68896484 C-93.33135465 160.794977 -91.66460176 157.89814386 -90 155 C-89.56461914 154.24396484 -89.12923828 153.48792969 -88.68066406 152.70898438 C-83.86425667 144.34343415 -79.15830453 135.9192779 -74.5 127.46484375 C-73.66666667 125.95572917 -72.83333333 124.44661458 -72 122.9375 C-71.5875 122.18662109 -71.175 121.43574219 -70.75 120.66210938 C-68.32721314 116.282165 -65.78808867 112.0095419 -63.11181641 107.7800293 C-61.71516432 105.5439752 -60.43683041 103.25876345 -59.1875 100.9375 C-58.6821875 100.00164062 -58.176875 99.06578125 -57.65625 98.1015625 C-56.48627453 95.91061787 -55.31995803 93.71771747 -54.15625 91.5234375 C-53.5001454 90.2863812 -52.84389182 89.04940392 -52.1875 87.8125 C-51.85403564 87.18359863 -51.52057129 86.55469727 -51.17700195 85.90673828 C-48.65090671 81.16515777 -46.0293463 76.48325726 -43.375 71.8125 C-40.84948085 67.36640179 -38.41762022 62.91661917 -36.1875 58.3125 C-32.89435962 51.57862752 -29.12649932 45.12490956 -25.38354492 38.63452148 C-22.85359409 34.2473076 -20.35736576 29.85820452 -18 25.375 C-15.14043485 20.08523384 -11.98416982 14.98146365 -8.8125 9.875 C-8.02649414 8.59181885 -8.02649414 8.59181885 -7.22460938 7.28271484 C-6.72380859 6.48559082 -6.22300781 5.6884668 -5.70703125 4.8671875 C-5.2581958 4.14644043 -4.80936035 3.42569336 -4.34692383 2.68310547 C-3 1 -3 1 0 0 Z " fill="#1F66B2" transform="translate(262,71)"/>
<path d="M0 0 C6.46937467 0.48853401 11.5090072 2.15733312 17.375 4.875 C18.23915527 5.27066162 19.10331055 5.66632324 19.99365234 6.07397461 C32.19243141 11.80417593 43.85686597 18.70750006 54.15234375 27.44140625 C56.12411605 29.16399213 56.12411605 29.16399213 59 31 C59 31.66 59 32.32 59 33 C60.485 33.495 60.485 33.495 62 34 C62 34.66 62 35.32 62 36 C62.54398437 36.21269531 63.08796875 36.42539063 63.6484375 36.64453125 C66.84625017 38.48778872 69.15500653 40.99256354 71.625 43.6875 C72.15061523 44.26056885 72.67623047 44.8336377 73.21777344 45.42407227 C83.28839178 56.69046258 93.51836313 71.53014105 98 86 C99.44139426 89.44681235 100.93437566 92.85781392 102.5 96.25 C105.46136594 103.20141688 107.19861728 110.50619627 107.7890625 118.02734375 C108.01053913 120.09856038 108.47459876 121.98533192 109 124 C116.53168054 158.63473532 108.39963 199.91740018 89.5 229.75 C88.33394083 231.50040485 87.16726123 233.25039652 86 235 C84.15490462 237.990327 82.3128832 240.98235358 80.48046875 243.98046875 C79.99191406 244.64691406 79.50335938 245.31335938 79 246 C78.34 246 77.68 246 77 246 C76.74476563 246.56074219 76.48953125 247.12148438 76.2265625 247.69921875 C72.11832614 255.40543281 65.75352807 261.60379865 59 267 C58.22946289 267.62092529 58.22946289 267.62092529 57.44335938 268.25439453 C46.4773906 277.07416656 35.75697501 284.91515131 23 291 C21.71166805 291.65251862 20.42394587 292.30624206 19.13671875 292.9609375 C-1.08986977 303.07662261 -22.38206171 308.1876397 -45 307 C-46 305 -46 305 -45.35083008 302.97216797 C-44.99400146 302.15377441 -44.63717285 301.33538086 -44.26953125 300.4921875 C-43.87830078 299.58726562 -43.48707031 298.68234375 -43.08398438 297.75 C-42.66439453 296.80125 -42.24480469 295.8525 -41.8125 294.875 C-41.41224609 293.94945312 -41.01199219 293.02390625 -40.59960938 292.0703125 C-38.75169391 287.82939143 -36.85035508 283.63596301 -34.76171875 279.5078125 C-32.97034325 276.14966872 -32.97034325 276.14966872 -32 273 C-28.83982028 270.90794629 -25.49773755 270.42397076 -21.8125 269.75 C-6.40960688 266.541729 9.30563737 260.71518162 22.33203125 251.7578125 C25 250 25 250 27 250 C27 249.34 27 248.68 27 248 C28.6796875 246.4921875 28.6796875 246.4921875 30.875 244.875 C31.59429687 244.33617187 32.31359375 243.79734375 33.0546875 243.2421875 C35 242 35 242 37 242 C37.2475 241.4225 37.495 240.845 37.75 240.25 C39.18299988 237.67060021 40.78424676 235.93878408 43 234 C43.66 234 44.32 234 45 234 C45.23589844 233.45730469 45.47179687 232.91460937 45.71484375 232.35546875 C47.34439747 229.3687791 49.40763152 226.94622814 51.5625 224.3125 C67.44845955 204.18448149 75.81906756 178.68927659 75.46655273 153.16064453 C75.43741208 150.86808285 75.44604935 148.57782766 75.45898438 146.28515625 C75.41324165 114.76631337 62.76887697 84.64720968 40.625 62.25 C28.83183859 50.62399651 14.84950457 41.97693952 -0.57421875 36.0078125 C-3 35 -3 35 -6 33 C-5.44890325 25.45614428 -4.11104653 18.2442301 -2.4375 10.875 C-2.08655273 9.2971875 -2.08655273 9.2971875 -1.72851562 7.6875 C-1.15750875 5.12379565 -0.58126181 2.56139504 0 0 Z " fill="#2167B2" transform="translate(285,106)"/>
<path d="M0 0 C1.75570312 0.01353516 1.75570312 0.01353516 3.546875 0.02734375 C4.43890625 0.03894531 5.3309375 0.05054687 6.25 0.0625 C5.60162922 4.52157827 4.6601232 7.26192111 2.25 11.0625 C1.53313263 12.73657179 0.81743359 14.41116568 0.11083984 16.08959961 C-1.37719392 19.49992315 -3.07004138 22.80613437 -4.75 26.125 C-5.09289062 26.80626953 -5.43578125 27.48753906 -5.7890625 28.18945312 C-6.46052775 29.52341366 -7.1350696 30.85583093 -7.81298828 32.18652344 C-8.68132268 33.92500221 -9.4955034 35.69024486 -10.3046875 37.45703125 C-12.31393164 41.0791011 -15.02908098 41.77364938 -18.75 43.0625 C-29.38762068 47.3133186 -40.04457278 52.77547523 -48.296875 60.8125 C-49.75 62.0625 -49.75 62.0625 -51.75 62.0625 C-51.75 62.7225 -51.75 63.3825 -51.75 64.0625 C-53.2890625 65.54296875 -53.2890625 65.54296875 -55.375 67.25 C-58.83787267 70.1725663 -61.72510908 73.22080902 -64.5234375 76.77734375 C-64.92820313 77.20144531 -65.33296875 77.62554687 -65.75 78.0625 C-66.41 78.0625 -67.07 78.0625 -67.75 78.0625 C-68.02328125 78.80242187 -68.2965625 79.54234375 -68.578125 80.3046875 C-69.67605658 82.88848648 -70.8853532 84.90442415 -72.5 87.1875 C-78.33323037 95.80251419 -82.47666485 104.46374594 -85.76953125 114.2890625 C-86.75 117.0625 -86.75 117.0625 -87.75 118.0625 C-88.12209467 119.46948298 -88.44828132 120.88876498 -88.75 122.3125 C-88.92402344 123.12847656 -89.09804687 123.94445312 -89.27734375 124.78515625 C-89.51130859 125.91244141 -89.51130859 125.91244141 -89.75 127.0625 C-90.0284375 128.3928125 -90.0284375 128.3928125 -90.3125 129.75 C-90.65058404 131.53701563 -90.95694693 133.33004997 -91.25 135.125 C-91.75 138.0625 -91.75 138.0625 -92.27783203 139.85546875 C-95.56611224 155.22571335 -92.09331338 175.23781537 -87.40869141 189.96044922 C-86.79252531 191.92679098 -86.25826666 193.91827525 -85.73046875 195.91015625 C-79.12767778 219.03228942 -60.91788587 243.34803946 -40.0625 255.5625 C-38.81919922 256.22765625 -38.81919922 256.22765625 -37.55078125 256.90625 C-36.95652344 257.2878125 -36.36226563 257.669375 -35.75 258.0625 C-35.75 258.7225 -35.75 259.3825 -35.75 260.0625 C-35.234375 260.145 -34.71875 260.2275 -34.1875 260.3125 C-30.69546991 261.3869708 -27.58696155 262.72312071 -24.75 265.0625 C-23.05724709 269.64289022 -24.04955338 272.62244493 -25.75 277.0625 C-26.09870985 278.72601746 -26.42955335 280.39330773 -26.75 282.0625 C-27.24301309 284.25158528 -27.74339957 286.43901915 -28.25 288.625 C-28.63671875 290.29755859 -28.63671875 290.29755859 -29.03125 292.00390625 C-29.58544857 294.36226214 -30.15300943 296.71471977 -30.75 299.0625 C-34.2317459 300.29450239 -34.2317459 300.29450239 -36.50390625 299.27734375 C-37.39916016 298.64505859 -37.39916016 298.64505859 -38.3125 298 C-41.44250714 295.89215386 -44.58953389 294.05480889 -47.9375 292.3125 C-58.77041753 286.45403423 -68.3615534 278.98210899 -77.75 271.0625 C-78.38421875 270.56363281 -79.0184375 270.06476563 -79.671875 269.55078125 C-85.21033424 265.11747328 -89.38703797 259.61795738 -93.75 254.0625 C-94.56855469 253.05960938 -95.38710937 252.05671875 -96.23046875 251.0234375 C-115.53887858 227.11760867 -127.33189661 194.75656011 -128.75 164.0625 C-128.79463379 163.26102539 -128.83926758 162.45955078 -128.88525391 161.63378906 C-131.10313675 117.22774202 -112.09992199 76.39632489 -83.34375 43.57421875 C-81.75 42.0625 -81.75 42.0625 -79.75 42.0625 C-79.52183594 41.49015625 -79.29367188 40.9178125 -79.05859375 40.328125 C-74.40019339 32.26283482 -63.29068297 26.33228565 -55.75 21.0625 C-54.95851563 20.48886719 -54.16703125 19.91523437 -53.3515625 19.32421875 C-40.7715195 10.69280123 -25.45648669 4.92899415 -10.75 1.0625 C-10.11707031 0.86785156 -9.48414063 0.67320313 -8.83203125 0.47265625 C-5.87234797 -0.1103958 -3.01233151 -0.03012332 0 0 Z " fill="#2066B2" transform="translate(206.75,100.9375)"/>
<path d="M0 0 C1.485 0.495 1.485 0.495 3 1 C2.35878726 10.06134845 1.26519458 19.00852005 0 28 C3.66554103 29.15746602 7.09769646 29.10718502 10.92407227 29.08178711 C11.612341 29.07872055 12.30060974 29.07565399 13.00973511 29.07249451 C14.49988031 29.06535643 15.99001609 29.05597534 17.48013496 29.04459953 C19.83783213 29.0271855 22.19546132 29.01690311 24.5532074 29.00868225 C31.25518214 28.98424472 37.95706487 28.9485797 44.65893555 28.90405273 C48.76135086 28.87729422 52.86371365 28.86023677 56.96619987 28.84918404 C58.52953984 28.84297095 60.09286945 28.8329615 61.65616035 28.81910515 C63.83928256 28.79992128 66.02212723 28.79299778 68.20532227 28.78881836 C70.06919334 28.77763222 70.06919334 28.77763222 71.97071838 28.76622009 C75 29 75 29 78 31 C76.39549301 36.87674849 73.42534845 41.78369314 70.375 47 C69.83738037 47.92973633 69.29976074 48.85947266 68.74584961 49.81738281 C67.66676152 51.68347743 66.58565968 53.54840918 65.50244141 55.41210938 C63.5069445 58.84926687 61.53226571 62.29805359 59.5625 65.75 C58.93730469 66.843125 58.31210937 67.93625 57.66796875 69.0625 C56.21840219 71.61536663 54.79042873 74.17811687 53.375 76.75 C51.74767692 79.70240311 50.04146592 82.58992558 48.28125 85.46484375 C44.67132297 91.46302887 41.40390106 97.62909435 38.125 103.8125 C33.82806367 111.86451863 29.49581918 119.80914983 24.55078125 127.484375 C22.94637783 129.99902795 22.94637783 129.99902795 21.625 132.78515625 C19.54271036 136.90468599 17.12429456 140.77039811 14.6875 144.6875 C11.07559464 150.53706223 7.62145885 156.41570568 4.39453125 162.48828125 C2.31890295 166.22673782 -0.01964063 169.78505935 -2.33984375 173.375 C-4.73291873 177.15887385 -6.87481363 181.06132126 -9 185 C-12.14259868 190.82428289 -15.50244135 196.4392261 -19.0859375 202.00390625 C-22.46346293 207.29076748 -25.72490053 212.64925307 -29 218 C-29.66 217.67 -30.32 217.34 -31 217 C-30.38909774 210.52443609 -30.38909774 210.52443609 -28.5625 208.0625 C-27 207 -27 207 -25 207 C-23.92474806 204.34771188 -22.90543849 201.71631546 -22 199 C-21.34 199 -20.68 199 -20 199 C-19.731875 197.96875 -19.46375 196.9375 -19.1875 195.875 C-18.17639728 192.3468969 -16.82713539 189.19748692 -15 186 C-14.34 185.67 -13.68 185.34 -13 185 C-12.27840576 183.35636866 -11.60648579 181.68949614 -11 180 C-10.34 180 -9.68 180 -9 180 C-8.01 177.03 -7.02 174.06 -6 171 C-5.34 171 -4.68 171 -4 171 C-4.33 170.01 -4.66 169.02 -5 168 C-4.01 168 -3.02 168 -2 168 C-1.75378906 167.33226562 -1.50757813 166.66453125 -1.25390625 165.9765625 C0.29203431 162.30675968 2.15593633 158.86752451 4.0625 155.375 C6.84441474 150.33187494 6.84441474 150.33187494 9 145 C9.66 145 10.32 145 11 145 C11.268125 144.319375 11.53625 143.63875 11.8125 142.9375 C13.16053306 139.60289191 14.57536298 136.30256763 16 133 C16.66 133 17.32 133 18 133 C18.94332477 130.6779698 19.87501447 128.36091328 20.6953125 125.9921875 C20.94023437 125.29351562 21.18515625 124.59484375 21.4375 123.875 C21.66308594 123.21242188 21.88867188 122.54984375 22.12109375 121.8671875 C23 120 23 120 24.41015625 118.59375 C26.49317678 116.50561148 27.62901548 114.2312987 29 111.625 C30.49543911 108.79768544 31.99194327 106.0132252 33.65625 103.28125 C35.08359382 101.11604151 35.08359382 101.11604151 35.5 98.875 C36 97 36 97 37.36328125 95.67578125 C39.28760184 93.70553415 40.38893807 91.74218751 41.6875 89.3125 C42.203125 88.34957031 42.71875 87.38664062 43.25 86.39453125 C44.54587413 83.88088256 45.81533879 81.36184538 47.0625 78.82421875 C47.41481689 78.10903076 47.76713379 77.39384277 48.13012695 76.65698242 C48.82494803 75.23958593 49.51378314 73.81923641 50.19604492 72.39575195 C51.80978494 69.0924695 53.3011413 66.49066103 56 64 C56.97715609 62.19809386 56.97715609 62.19809386 57.6875 60.3125 C58.120625 59.219375 58.55375 58.12625 59 57 C59.66 57 60.32 57 61 57 C61.268125 56.319375 61.53625 55.63875 61.8125 54.9375 C63.16053306 51.60289191 64.57536298 48.30256763 66 45 C66.66 45 67.32 45 68 45 C68.4021875 43.9171875 68.4021875 43.9171875 68.8125 42.8125 C70 40 70 40 71.625 37.3125 C73.17035846 35.16188894 73.17035846 35.16188894 73 33 C47.59 32.67 22.18 32.34 -4 32 C-4 28.04 -4 24.08 -4 20 C-3.34 20 -2.68 20 -2 20 C-2.02320313 19.2265625 -2.04640625 18.453125 -2.0703125 17.65625 C-2.17928906 11.36674562 -1.85126093 6.01659801 0 0 Z " fill="#205294" transform="translate(243,185)"/>
<path d="M0 0 C6.46937467 0.48853401 11.5090072 2.15733312 17.375 4.875 C18.67123291 5.46849243 18.67123291 5.46849243 19.99365234 6.07397461 C32.19243141 11.80417593 43.85686597 18.70750006 54.15234375 27.44140625 C56.12411605 29.16399213 56.12411605 29.16399213 59 31 C59 31.66 59 32.32 59 33 C59.99 33.33 60.98 33.66 62 34 C62 34.66 62 35.32 62 36 C62.54398437 36.21269531 63.08796875 36.42539063 63.6484375 36.64453125 C66.84625017 38.48778872 69.15500653 40.99256354 71.625 43.6875 C72.15061523 44.26056885 72.67623047 44.8336377 73.21777344 45.42407227 C83.28839178 56.69046258 93.51836313 71.53014105 98 86 C99.44139426 89.44681235 100.93437566 92.85781392 102.5 96.25 C105.46136594 103.20141688 107.19861728 110.50619627 107.7890625 118.02734375 C108.01053913 120.09856038 108.47459876 121.98533192 109 124 C112.96265427 142.22242475 112.67863366 163.95384162 108 182 C107.34 182 106.68 182 106 182 C105.25740175 179.19462881 104.96333295 177.20727487 105.47265625 174.328125 C106.08175195 170.48405434 106.0719182 166.75139083 106 162.875 C105.92464103 158.76793639 105.88962933 154.98377263 107 151 C107.11666256 149.25277474 107.17499235 147.50107105 107.1875 145.75 C107.20167969 144.85796875 107.21585937 143.9659375 107.23046875 143.046875 C106.99995057 139.99934658 106.31342283 137.26510103 105.52807617 134.3203125 C104.23872639 128.65504188 103.84571796 122.78959497 103.23242188 117.01953125 C102.16498618 107.7369689 99.86891271 99.51160797 96 91 C95.72542969 90.360625 95.45085937 89.72125 95.16796875 89.0625 C86.78735591 69.66227283 72.14505797 40.07252899 52 30 C52 29.34 52 28.68 52 28 C51.2575 27.731875 50.515 27.46375 49.75 27.1875 C47 26 47 26 44.9375 24.4375 C42.92312271 22.94296201 41.44506011 22.43661788 39 22 C39 21.34 39 20.68 39 20 C38.443125 19.896875 37.88625 19.79375 37.3125 19.6875 C34.5230899 18.85821592 32.3860936 17.65700944 30 16 C30 15.34 30 14.68 30 14 C28.88625 13.71125 27.7725 13.4225 26.625 13.125 C23 12 23 12 21 10 C18.93125966 9.3574765 18.93125966 9.3574765 17 9 C17 8.34 17 7.68 17 7 C16.32453125 6.86722656 15.6490625 6.73445313 14.953125 6.59765625 C14.06109375 6.42105469 13.1690625 6.24445313 12.25 6.0625 C11.36828125 5.88847656 10.4865625 5.71445313 9.578125 5.53515625 C7.36764947 5.07631512 5.18487932 4.56663926 3 4 C1.09064616 9.98264204 -0.45677868 15.86471557 -1.47265625 22.06640625 C-1.64667969 22.70449219 -1.82070313 23.34257812 -2 24 C-2.66 24.33 -3.32 24.66 -4 25 C-4.21908649 18.97512156 -3.49398047 13.82450494 -2 8 C-1.80921875 7.22527344 -1.6184375 6.45054688 -1.421875 5.65234375 C-0.95615457 3.76617601 -0.47925183 1.88277506 0 0 Z " fill="#2A57A4" transform="translate(285,106)"/>
<path d="M0 0 C0.66 0 1.32 0 2 0 C0.48802285 5.26699733 -1.91367632 9.66102882 -4.625 14.375 C-9.38296131 22.77765376 -13.76772252 31.32264897 -18 40 C-18.66 40 -19.32 40 -20 40 C-20.21011719 40.77472656 -20.42023438 41.54945313 -20.63671875 42.34765625 C-22.50804136 47.36108502 -25.141382 51.81106906 -27.8125 56.4375 C-28.98445507 58.4895376 -30.15632759 60.54162236 -31.328125 62.59375 C-31.93205078 63.64691406 -32.53597656 64.70007813 -33.15820312 65.78515625 C-36.14215895 70.99363058 -39.10346186 76.21484234 -42.0625 81.4375 C-42.59786377 82.377146 -43.13322754 83.31679199 -43.68481445 84.28491211 C-45.94404674 88.26788949 -48.15618455 92.24698299 -50.171875 96.359375 C-51.63765447 99.34732463 -53.27362307 102.08190439 -55.1875 104.8125 C-56.9310567 107.30644819 -58.02876385 109.08629155 -59 112 C-59.66 112 -60.32 112 -61 112 C-61.144375 112.5775 -61.28875 113.155 -61.4375 113.75 C-61.95833333 115.83333333 -62.47916667 117.91666667 -63 120 C-63.66 120 -64.32 120 -65 120 C-65.0825 120.78375 -65.165 121.5675 -65.25 122.375 C-65.4975 123.24125 -65.745 124.1075 -66 125 C-67.32467746 125.6837045 -68.65863633 126.34964186 -70 127 C-71.12085312 129.3430809 -71.12085312 129.3430809 -72 132 C-72.53625 132.845625 -73.0725 133.69125 -73.625 134.5625 C-75.32754746 137.11422287 -75.32754746 137.11422287 -75 141 C-50.58 141 -26.16 141 -1 141 C-2.15033784 158.25506757 -2.15033784 158.25506757 -3.0625 164.9375 C-3.15337891 165.63294922 -3.24425781 166.32839844 -3.33789062 167.04492188 C-3.55439218 168.69717057 -3.77649728 170.3486838 -4 172 C-4.66 172 -5.32 172 -6 172 C-6.185625 173.9490625 -6.185625 173.9490625 -6.375 175.9375 C-6.90528422 180.65030768 -7.46172836 185.49577977 -9 190 C-9.66 190.33 -10.32 190.66 -11 191 C-10.60242414 182.87025918 -9.51067153 175.16232851 -7.80151367 167.20874023 C-6.92207866 162.83553729 -6.3912948 158.44705803 -5.90234375 154.015625 C-5.81400269 153.23977051 -5.72566162 152.46391602 -5.63464355 151.66455078 C-5.42011545 149.77670347 -5.20962872 147.88839762 -5 146 C-5.8533342 146.00666183 -6.7066684 146.01332367 -7.58586121 146.02018738 C-15.63400417 146.08033832 -23.68207147 146.12599466 -31.73038769 146.15543652 C-35.86796356 146.17108182 -40.00535343 146.19229917 -44.14282227 146.22631836 C-48.13691851 146.25895259 -52.13083602 146.27686156 -56.12505531 146.28463173 C-57.64767584 146.29016797 -59.17028675 146.300979 -60.69283104 146.31719017 C-62.8282307 146.33901914 -64.9628951 146.34196474 -67.09838867 146.34057617 C-68.92040047 146.35056892 -68.92040047 146.35056892 -70.77922058 146.36076355 C-74.2719394 145.96953973 -76.16660701 145.02536886 -79 143 C-77.95871516 136.44498034 -76.05789175 131.83105497 -72.25 126.4375 C-67.48298661 119.38553843 -63.07735824 112.17891688 -58.8125 104.8125 C-58.21542236 103.7817334 -57.61834473 102.7509668 -57.00317383 101.68896484 C-55.33135465 98.794977 -53.66460176 95.89814386 -52 93 C-51.56461914 92.24396484 -51.12923828 91.48792969 -50.68066406 90.70898438 C-45.86425667 82.34343415 -41.15830453 73.9192779 -36.5 65.46484375 C-35.66666667 63.95572917 -34.83333333 62.44661458 -34 60.9375 C-33.38125 59.81118164 -33.38125 59.81118164 -32.75 58.66210938 C-30.32721314 54.282165 -27.78808867 50.0095419 -25.11181641 45.7800293 C-23.71516432 43.5439752 -22.43683041 41.25876345 -21.1875 38.9375 C-20.68089844 37.9990625 -20.17429688 37.060625 -19.65234375 36.09375 C-18.17515209 33.32794435 -16.70385019 30.55907264 -15.23364258 27.78955078 C-14.7467395 26.87278564 -14.7467395 26.87278564 -14.25 25.9375 C-13.92346436 25.32245605 -13.59692871 24.70741211 -13.26049805 24.07373047 C-8.95118717 15.98826162 -4.47035275 7.99716794 0 0 Z " fill="#1F5EA3" transform="translate(224,133)"/>
<path d="M0 0 C1.75570312 0.01353516 1.75570312 0.01353516 3.546875 0.02734375 C4.43890625 0.03894531 5.3309375 0.05054687 6.25 0.0625 C5.60162922 4.52157827 4.6601232 7.26192111 2.25 11.0625 C1.53313263 12.73657179 0.81743359 14.41116568 0.11083984 16.08959961 C-1.37719392 19.49992315 -3.07004138 22.80613437 -4.75 26.125 C-5.09289062 26.80626953 -5.43578125 27.48753906 -5.7890625 28.18945312 C-6.45988815 29.52214302 -7.13322181 30.85357409 -7.80932617 32.18359375 C-8.68999296 33.94264165 -9.52828877 35.72272375 -10.36328125 37.50390625 C-11.75 40.0625 -11.75 40.0625 -13.9375 40.9375 C-14.535625 40.97875 -15.13375 41.02 -15.75 41.0625 C-15.75 40.0725 -15.75 39.0825 -15.75 38.0625 C-15.09 38.0625 -14.43 38.0625 -13.75 38.0625 C-13.42 36.0825 -13.09 34.1025 -12.75 32.0625 C-12.09 32.0625 -11.43 32.0625 -10.75 32.0625 C-10.605625 31.485 -10.46125 30.9075 -10.3125 30.3125 C-9.79166667 28.22916667 -9.27083333 26.14583333 -8.75 24.0625 C-8.09 24.0625 -7.43 24.0625 -6.75 24.0625 C-6.3478125 22.5775 -6.3478125 22.5775 -5.9375 21.0625 C-5.13578455 18.28472536 -4.27216105 15.53995771 -3.3125 12.8125 C-3.08691406 12.16796875 -2.86132812 11.5234375 -2.62890625 10.859375 C-1.62983922 8.81683797 -0.38921847 7.61866473 1.25 6.0625 C1.58 5.4025 1.91 4.7425 2.25 4.0625 C0.35448978 4.00808344 -1.5414792 3.96951965 -3.4375 3.9375 C-4.49324219 3.91429688 -5.54898438 3.89109375 -6.63671875 3.8671875 C-9.80567408 4.06599273 -11.88779107 4.74598141 -14.75 6.0625 C-17.75 7.0625 -17.75 7.0625 -20.625 7.5 C-23.60218752 8.03589375 -26.03384472 8.74322458 -28.75 10.0625 C-29.08 10.7225 -29.41 11.3825 -29.75 12.0625 C-31.07 12.0625 -32.39 12.0625 -33.75 12.0625 C-33.75 12.7225 -33.75 13.3825 -33.75 14.0625 C-34.36456055 14.21090332 -34.97912109 14.35930664 -35.61230469 14.51220703 C-42.28365178 16.29267528 -47.37308848 18.98896036 -53 22.9375 C-53.763125 23.45441406 -54.52625 23.97132812 -55.3125 24.50390625 C-60.87348029 28.31030138 -66.41492272 32.16179588 -70.6875 37.4375 C-74.97664405 42.50120731 -79.74522201 47.08131929 -84.50756836 51.69482422 C-87.84456126 54.97095882 -90.45411587 57.95258397 -92.75 62.0625 C-94.46875 63.94140625 -94.46875 63.94140625 -96.25 65.625 C-98.67232112 67.97050332 -100.84562562 70.26194945 -102.75 73.0625 C-102.75 64.33355524 -94.10979194 56.51697006 -88.75 50.0625 C-88.09128906 49.26714844 -87.43257812 48.47179687 -86.75390625 47.65234375 C-83.21161417 43.47671047 -83.21161417 43.47671047 -81.75 42.0625 C-81.09 42.0625 -80.43 42.0625 -79.75 42.0625 C-79.52183594 41.49015625 -79.29367188 40.9178125 -79.05859375 40.328125 C-74.40019339 32.26283482 -63.29068297 26.33228565 -55.75 21.0625 C-54.95851562 20.48886719 -54.16703125 19.91523437 -53.3515625 19.32421875 C-40.7715195 10.69280123 -25.45648669 4.92899415 -10.75 1.0625 C-10.11707031 0.86785156 -9.48414063 0.67320313 -8.83203125 0.47265625 C-5.87234797 -0.1103958 -3.01233151 -0.03012332 0 0 Z " fill="#2458A0" transform="translate(206.75,100.9375)"/>
<path d="M0 0 C0.66 0.33 1.32 0.66 2 1 C2.00410889 1.80405273 2.00821777 2.60810547 2.01245117 3.43652344 C2.15169448 19.054053 2.56334374 33.88196128 7.34130859 48.89794922 C7.95747469 50.86429098 8.49173334 52.85577525 9.01953125 54.84765625 C15.62232222 77.96978942 33.83211413 102.28553946 54.6875 114.5 C55.93080078 115.16515625 55.93080078 115.16515625 57.19921875 115.84375 C57.79347656 116.2253125 58.38773438 116.606875 59 117 C59 117.66 59 118.32 59 119 C59.515625 119.0825 60.03125 119.165 60.5625 119.25 C64.11629969 120.34347683 66.86110581 121.98636976 70 124 C70.33 124.99 70.66 125.98 71 127 C66.44046291 126.45456005 63.18281347 124.49774382 59.4375 122 C58.82471191 121.59628174 58.21192383 121.19256348 57.58056641 120.77661133 C27.60608133 100.83106679 6.78624605 72.97306465 -0.54467773 37.35351562 C-1.94794832 29.64719357 -2.3035179 22.19753349 -2.25 14.375 C-2.25773437 13.20582031 -2.26546875 12.03664062 -2.2734375 10.83203125 C-2.27085938 9.71957031 -2.26828125 8.60710937 -2.265625 7.4609375 C-2.26336914 6.45853027 -2.26111328 5.45612305 -2.25878906 4.42333984 C-2 2 -2 2 0 0 Z " fill="#225C94" transform="translate(112,242)"/>
<path d="M0 0 C6.46937467 0.48853401 11.5090072 2.15733312 17.375 4.875 C18.67123291 5.46849243 18.67123291 5.46849243 19.99365234 6.07397461 C32.19243141 11.80417593 43.85686597 18.70750006 54.15234375 27.44140625 C56.12411605 29.16399213 56.12411605 29.16399213 59 31 C59 31.66 59 32.32 59 33 C59.99 33.33 60.98 33.66 62 34 C62 34.66 62 35.32 62 36 C62.54398437 36.21269531 63.08796875 36.42539063 63.6484375 36.64453125 C66.84638561 38.48786679 69.15446202 40.99294745 71.625 43.6875 C72.14626465 44.25404297 72.6675293 44.82058594 73.20458984 45.40429688 C79.85676895 52.83017309 86.66248049 61.52575108 90 71 C88.515 71.495 88.515 71.495 87 72 C86.40574219 70.99582031 85.81148438 69.99164063 85.19921875 68.95703125 C77.51569461 56.18988406 65.81764678 36.90882339 52 30 C52 29.34 52 28.68 52 28 C51.2575 27.731875 50.515 27.46375 49.75 27.1875 C47 26 47 26 44.9375 24.4375 C42.92312271 22.94296201 41.44506011 22.43661788 39 22 C39 21.34 39 20.68 39 20 C38.443125 19.896875 37.88625 19.79375 37.3125 19.6875 C34.5230899 18.85821592 32.3860936 17.65700944 30 16 C30 15.34 30 14.68 30 14 C28.88625 13.71125 27.7725 13.4225 26.625 13.125 C23 12 23 12 21 10 C18.93125966 9.3574765 18.93125966 9.3574765 17 9 C17 8.34 17 7.68 17 7 C16.32453125 6.86722656 15.6490625 6.73445313 14.953125 6.59765625 C14.06109375 6.42105469 13.1690625 6.24445313 12.25 6.0625 C11.36828125 5.88847656 10.4865625 5.71445313 9.578125 5.53515625 C7.36764947 5.07631512 5.18487932 4.56663926 3 4 C1.09064616 9.98264204 -0.45677868 15.86471557 -1.47265625 22.06640625 C-1.64667969 22.70449219 -1.82070313 23.34257812 -2 24 C-2.66 24.33 -3.32 24.66 -4 25 C-4.21908649 18.97512156 -3.49398047 13.82450494 -2 8 C-1.80921875 7.22527344 -1.6184375 6.45054688 -1.421875 5.65234375 C-0.95615457 3.76617601 -0.47925183 1.88277506 0 0 Z " fill="#2A5798" transform="translate(285,106)"/>
<path d="M0 0 C0.66 0 1.32 0 2 0 C0.48802285 5.26699733 -1.91367632 9.66102882 -4.625 14.375 C-9.38296131 22.77765376 -13.76772252 31.32264897 -18 40 C-18.66 40 -19.32 40 -20 40 C-20.21011719 40.77472656 -20.42023438 41.54945313 -20.63671875 42.34765625 C-22.50804136 47.36108502 -25.141382 51.81106906 -27.8125 56.4375 C-28.98445507 58.4895376 -30.15632759 60.54162236 -31.328125 62.59375 C-31.93205078 63.64691406 -32.53597656 64.70007813 -33.15820312 65.78515625 C-36.14215895 70.99363058 -39.10346186 76.21484234 -42.0625 81.4375 C-42.59786377 82.377146 -43.13322754 83.31679199 -43.68481445 84.28491211 C-45.94404674 88.26788949 -48.15618455 92.24698299 -50.171875 96.359375 C-51.63765447 99.34732463 -53.27362307 102.08190439 -55.1875 104.8125 C-56.9310567 107.30644819 -58.02876385 109.08629155 -59 112 C-59.66 112 -60.32 112 -61 112 C-61.144375 112.5775 -61.28875 113.155 -61.4375 113.75 C-61.95833333 115.83333333 -62.47916667 117.91666667 -63 120 C-63.66 120 -64.32 120 -65 120 C-65.0825 120.78375 -65.165 121.5675 -65.25 122.375 C-65.4975 123.24125 -65.745 124.1075 -66 125 C-67.32467746 125.6837045 -68.65863633 126.34964186 -70 127 C-71.07254351 129.26225382 -71.07254351 129.26225382 -72 132 C-72.69236566 133.19688017 -73.40173571 134.38403442 -74.125 135.5625 C-76.31923475 138.93266142 -76.31923475 138.93266142 -76 143 C-76.99 143 -77.98 143 -79 143 C-77.95871516 136.44498034 -76.05789175 131.83105497 -72.25 126.4375 C-67.48298661 119.38553843 -63.07735824 112.17891688 -58.8125 104.8125 C-58.21542236 103.7817334 -57.61834473 102.7509668 -57.00317383 101.68896484 C-55.33135465 98.794977 -53.66460176 95.89814386 -52 93 C-51.56461914 92.24396484 -51.12923828 91.48792969 -50.68066406 90.70898438 C-45.86425667 82.34343415 -41.15830453 73.9192779 -36.5 65.46484375 C-35.66666667 63.95572917 -34.83333333 62.44661458 -34 60.9375 C-33.38125 59.81118164 -33.38125 59.81118164 -32.75 58.66210938 C-30.32721314 54.282165 -27.78808867 50.0095419 -25.11181641 45.7800293 C-23.71516432 43.5439752 -22.43683041 41.25876345 -21.1875 38.9375 C-20.68089844 37.9990625 -20.17429688 37.060625 -19.65234375 36.09375 C-18.17515209 33.32794435 -16.70385019 30.55907264 -15.23364258 27.78955078 C-14.7467395 26.87278564 -14.7467395 26.87278564 -14.25 25.9375 C-13.92346436 25.32245605 -13.59692871 24.70741211 -13.26049805 24.07373047 C-8.95118717 15.98826162 -4.47035275 7.99716794 0 0 Z " fill="#154F95" transform="translate(224,133)"/>
<path d="M0 0 C-2.93056217 1.95370811 -5.69958061 3.25618859 -8.9375 4.625 C-9.97777344 5.07101562 -11.01804687 5.51703125 -12.08984375 5.9765625 C-15 7 -15 7 -19 7 C-19.556875 8.794375 -19.556875 8.794375 -20.125 10.625 C-21.95675193 16.14654889 -24.27202537 21.43975276 -26.59765625 26.765625 C-27.78066732 29.49412964 -28.91269247 32.2323081 -30 35 C-19.98794467 34.64065643 -10.40447346 33.7431904 -0.5859375 31.71875 C2.94081656 31.01186248 6.43653339 30.47635029 10 30 C10.495 28.515 10.495 28.515 11 27 C14.63 26.67 18.26 26.34 22 26 C22.495 24.515 22.495 24.515 23 23 C24.78515625 22.19140625 24.78515625 22.19140625 27.0625 21.5625 C30.40312434 20.56458187 33.3601998 19.39009956 36.4375 17.75 C37.613125 17.1725 38.78875 16.595 40 16 C40.66 16.33 41.32 16.66 42 17 C39.4649406 20.8025891 36.50931029 21.76065533 32.4375 23.4375 C30.96462839 24.05808287 29.49197002 24.67917208 28.01953125 25.30078125 C27.31521973 25.59549316 26.6109082 25.89020508 25.88525391 26.19384766 C23.76235818 27.10161788 21.69720087 28.10758675 19.625 29.125 C12.43578451 32.33249614 4.60853942 34.07486091 -3 36 C-3.97066406 36.25136719 -4.94132812 36.50273437 -5.94140625 36.76171875 C-14.8042536 38.71737051 -23.97822015 38.1682819 -33 38 C-34 36 -34 36 -33.35083008 33.97216797 C-32.99400146 33.15377441 -32.63717285 32.33538086 -32.26953125 31.4921875 C-31.87830078 30.58726562 -31.48707031 29.68234375 -31.08398438 28.75 C-30.66439453 27.80125 -30.24480469 26.8525 -29.8125 25.875 C-29.21211914 24.48667969 -29.21211914 24.48667969 -28.59960938 23.0703125 C-26.75169391 18.82939143 -24.85035508 14.63596301 -22.76171875 10.5078125 C-20.97034325 7.14966872 -20.97034325 7.14966872 -20 4 C-14.08762893 0.31603894 -6.80267589 -0.28947557 0 0 Z " fill="#205EA3" transform="translate(273,375)"/>
<path d="M0 0 C4.00827527 1.21517848 5.34435065 3.84823087 7.24755859 7.40649414 C7.80564209 8.50465454 7.80564209 8.50465454 8.375 9.625 C8.9620874 10.76473267 8.9620874 10.76473267 9.56103516 11.92749023 C15.93817987 24.57309321 20.00335996 36.96606246 22 51 C22.09571289 51.6602417 22.19142578 52.3204834 22.29003906 53.00073242 C23.1719558 59.80442398 23.14792737 66.58603837 23.125 73.4375 C23.12886719 74.62021484 23.13273437 75.80292969 23.13671875 77.02148438 C23.13542969 78.14748047 23.13414062 79.27347656 23.1328125 80.43359375 C23.13168457 81.45509521 23.13055664 82.47659668 23.12939453 83.52905273 C23 86 23 86 22 88 C21.87028351 90.06105084 21.77060812 92.12404416 21.6875 94.1875 C21.30491186 99.93907502 20.35118404 103.35158343 17 108 C16.67 108 16.34 108 16 108 C16.78717345 99.86587436 16.78717345 99.86587436 17.47436523 97.07006836 C19.32355342 89.3197091 19.33771825 81.60756586 19.31567383 73.6887207 C19.31252914 71.33431975 19.33598721 68.98119826 19.36132812 66.62695312 C19.46100713 42.68751006 11.89786071 20.67358776 0 0 Z " fill="#195FA6" transform="translate(341,186)"/>
<path d="M0 0 C2.19025105 6.57075315 0.07643862 14.15385066 -1.53125 20.73828125 C-2.05061541 23.24421937 -2.28909413 25.70029872 -2.5 28.25 C-2.81371501 31.88573285 -3.54600246 34.63763068 -5 38 C-5.84038396 42.76217579 -6.27547114 47.56225808 -6.71875 52.375 C-7.06395124 55.59687829 -7.53835707 58.79257472 -8 62 C-8.20081735 63.43701765 -8.40106782 64.8741146 -8.60083008 66.3112793 C-9.19034533 70.53364041 -9.80114293 74.75267436 -10.41918945 78.97094727 C-10.68204933 80.78649155 -10.93885816 82.60292192 -11.18969727 84.42016602 C-11.55482005 87.05737534 -11.9412595 89.69070361 -12.33203125 92.32421875 C-12.43949173 93.13469162 -12.54695221 93.94516449 -12.65766907 94.78019714 C-13.36975656 99.40905797 -14.10628132 102.00587325 -18 105 C-17.35319029 99.33090312 -16.68322549 93.66482159 -16 88 C-15.8875293 87.06381836 -15.77505859 86.12763672 -15.65917969 85.16308594 C-14.09724805 72.29328558 -12.3851327 59.64960317 -8.9375 47.125 C-7.68554245 42.35712834 -7.24584074 37.43408038 -6.69702148 32.54541016 C-6.35465132 29.54652114 -5.9580026 26.8740078 -5 24 C-4.74209367 20.786917 -4.55803856 17.57999983 -4.39453125 14.36132812 C-4.10085306 9.20170612 -4.10085306 9.20170612 -3 7 C-2.34 7 -1.68 7 -1 7 C-1.020625 6.030625 -1.04125 5.06125 -1.0625 4.0625 C-1 1 -1 1 0 0 Z " fill="#325BA7" transform="translate(262,78)"/>
<path d="M0 0 C0.99 0.33 1.98 0.66 3 1 C2.35878726 10.06134845 1.26519458 19.00852005 0 28 C3.3181289 28.99796579 6.32108637 29.12104112 9.77832031 29.11352539 C11.51967255 29.11341209 11.51967255 29.11341209 13.29620361 29.11329651 C15.1682547 29.10555458 15.1682547 29.10555458 17.078125 29.09765625 C19.00069122 29.09553383 19.00069122 29.09553383 20.96209717 29.09336853 C24.3618364 29.08955901 27.7615326 29.07974214 31.16125488 29.06866455 C34.633539 29.05841674 38.1058301 29.0538637 41.578125 29.04882812 C48.38543429 29.03811841 55.19271508 29.02106084 62 29 C62 29.33 62 29.66 62 30 C55.16424802 31.23845668 48.34195134 31.22405503 41.41015625 31.31640625 C39.46066322 31.3475779 39.46066322 31.3475779 37.4717865 31.37937927 C34.03763825 31.43424033 30.60343375 31.4838062 27.16918945 31.53222656 C23.6563626 31.5827064 20.14361616 31.63825339 16.63085938 31.69335938 C9.75397472 31.80050013 2.87701482 31.90157156 -4 32 C-4 28.04 -4 24.08 -4 20 C-3.34 20 -2.68 20 -2 20 C-2.02320313 19.2265625 -2.04640625 18.453125 -2.0703125 17.65625 C-2.17928906 11.36674562 -1.85126093 6.01659801 0 0 Z " fill="#1C51A4" transform="translate(243,185)"/>
<path d="M0 0 C1 2 1 2 0.3125 5.5 C-1 9 -1 9 -2.98046875 9.91796875 C-5.20004269 10.84076624 -5.20004269 10.84076624 -5.9765625 13.20703125 C-6.19054687 14.06683594 -6.40453125 14.92664063 -6.625 15.8125 C-7.35465478 18.59156766 -8.04630549 21.10723377 -9.1875 23.75 C-10.17480299 26.06197271 -10.17480299 26.06197271 -9.9375 28.9375 C-10.01388752 32.68048866 -11.2015934 34.74903422 -13 38 C-13.68528045 39.65910004 -14.35891863 41.32332564 -15 43 C-15.66 43 -16.32 43 -17 43 C-17.06058594 43.83144531 -17.12117188 44.66289062 -17.18359375 45.51953125 C-17.26738281 46.60621094 -17.35117188 47.69289062 -17.4375 48.8125 C-17.51871094 49.89144531 -17.59992188 50.97039062 -17.68359375 52.08203125 C-18 55 -18 55 -19 58 C-19.26961505 61.32097273 -19.44499436 64.64159564 -19.62109375 67.96875 C-20 71 -20 71 -22 74 C-24.7283735 66.45521206 -23.38882097 60.50062904 -21.625 52.8125 C-21.34897949 51.5759668 -21.07295898 50.33943359 -20.78857422 49.06542969 C-16.87428556 32.29485813 -10.68250362 15.91923157 -2 1 C-1.34 0.67 -0.68 0.34 0 0 Z " fill="#1C5AA2" transform="translate(102,175)"/>
<path d="M0 0 C1.28515625 1.51953125 1.28515625 1.51953125 2 4 C0.85251165 6.79462407 -0.86422332 9.19998511 -2.5625 11.6875 C-3.50673367 13.12921048 -4.44945661 14.5719116 -5.390625 16.015625 C-5.84630859 16.70591797 -6.30199219 17.39621094 -6.77148438 18.10742188 C-9.05479431 21.6249534 -11.02537417 25.3039055 -13 29 C-16.14009058 34.82555525 -19.50256548 40.43941886 -23.0859375 46.00390625 C-26.46346293 51.29076748 -29.72490053 56.64925307 -33 62 C-33.66 61.67 -34.32 61.34 -35 61 C-34.38909774 54.52443609 -34.38909774 54.52443609 -32.5625 52.0625 C-31 51 -31 51 -29 51 C-27.92474806 48.34771188 -26.90543849 45.71631546 -26 43 C-25.34 43 -24.68 43 -24 43 C-23.731875 41.96875 -23.46375 40.9375 -23.1875 39.875 C-22.17639728 36.3468969 -20.82713539 33.19748692 -19 30 C-18.34 29.67 -17.68 29.34 -17 29 C-16.27840576 27.35636866 -15.60648579 25.68949614 -15 24 C-14.34 24 -13.68 24 -13 24 C-12.01 21.03 -11.02 18.06 -10 15 C-9.34 15 -8.68 15 -8 15 C-8.33 14.01 -8.66 13.02 -9 12 C-8.01 12 -7.02 12 -6 12 C-5.7525 11.319375 -5.505 10.63875 -5.25 9.9375 C-3.75802092 6.43134917 -1.93164489 3.28379632 0 0 Z " fill="#29589A" transform="translate(247,341)"/>
<path d="M0 0 C0.66 0 1.32 0 2 0 C-3.74797041 20.192352 -27.6856013 38.99865654 -45 49 C-46.485 49.495 -46.485 49.495 -48 50 C-48.72231812 50.72268066 -48.72231812 50.72268066 -49.45922852 51.45996094 C-52.09174265 54.09122368 -55.49665804 54.98086223 -58.9375 56.25 C-59.65357422 56.53101563 -60.36964844 56.81203125 -61.10742188 57.1015625 C-64.85657408 58.50532292 -67.18411833 59.23198616 -71 58 C-70.34 58 -69.68 58 -69 58 C-69 57.34 -69 56.68 -69 56 C-68.00742187 55.6596875 -67.01484375 55.319375 -65.9921875 54.96875 C-57.44715825 51.95074091 -49.73965631 48.4343862 -41.98828125 43.734375 C-39.36267359 42.21049291 -36.84652126 41.03509864 -34 40 C-34 39.34 -34 38.68 -34 38 C-32.3203125 36.4921875 -32.3203125 36.4921875 -30.125 34.875 C-29.40570313 34.33617187 -28.68640625 33.79734375 -27.9453125 33.2421875 C-26 32 -26 32 -24 32 C-23.7525 31.4225 -23.505 30.845 -23.25 30.25 C-21.81700012 27.67060021 -20.21575324 25.93878408 -18 24 C-17.34 24 -16.68 24 -16 24 C-15.77054687 23.47019531 -15.54109375 22.94039063 -15.3046875 22.39453125 C-13.24974872 18.62304181 -10.48271862 15.38565549 -7.80859375 12.04101562 C-4.7904912 8.202678 -2.33765033 4.28931654 0 0 Z " fill="#0E3D88" transform="translate(346,316)"/>
<path d="M0 0 C4.84739888 3.73942199 9.04158658 7.90786667 13.12890625 12.453125 C21.02922751 21.22016271 29.09179681 29.95559618 40 35 C40 35.66 40 36.32 40 37 C40.515625 37.0825 41.03125 37.165 41.5625 37.25 C45.11629969 38.34347683 47.86110581 39.98636976 51 42 C51.33 42.99 51.66 43.98 52 45 C47.44046291 44.45456005 44.18281347 42.49774382 40.4375 40 C39.82471191 39.59628174 39.21192383 39.19256348 38.58056641 38.77661133 C23.45880973 28.71433101 9.92415416 17.38745115 0 2 C0 1.34 0 0.68 0 0 Z " fill="#274983" transform="translate(131,324)"/>
<path d="M0 0 C0.33 0 0.66 0 1 0 C1.35475891 4.79967941 0.7357476 7.07290824 -2.1875 10.875 C-5.03153733 14.67472599 -7.57957535 18.49578542 -9.95703125 22.6015625 C-10.30121094 23.06304687 -10.64539063 23.52453125 -11 24 C-11.66 24 -12.32 24 -13 24 C-13.38285156 24.84111328 -13.38285156 24.84111328 -13.7734375 25.69921875 C-17.86527783 33.3746772 -24.24102003 39.64677427 -31 45 C-31.67546875 45.57878906 -32.3509375 46.15757812 -33.046875 46.75390625 C-33.69140625 47.16511719 -34.3359375 47.57632813 -35 48 C-35.99 47.67 -36.98 47.34 -38 47 C-37.360625 46.7525 -36.72125 46.505 -36.0625 46.25 C-33.81258459 45.18437567 -33.81258459 45.18437567 -33.25 42.875 C-33.1675 42.25625 -33.085 41.6375 -33 41 C-32.34 41 -31.68 41 -31 41 C-30.79375 40.46375 -30.5875 39.9275 -30.375 39.375 C-28.46749574 36.08021991 -25.95180616 33.40636372 -23 31 C-22.34 31 -21.68 31 -21 31 C-21 30.34 -21 29.68 -21 29 C-20.01 28.34 -19.02 27.68 -18 27 C-16.80767387 24.94996045 -16.80767387 24.94996045 -16 23 C-15.34 23 -14.68 23 -14 23 C-13.67 21.68 -13.34 20.36 -13 19 C-12.34 19 -11.68 19 -11 19 C-11 18.01 -11 17.02 -11 16 C-10.34 15.67 -9.68 15.34 -9 15 C-8.67 14.01 -8.34 13.02 -8 12 C-7.34 12 -6.68 12 -6 12 C-5.7525 11.319375 -5.505 10.63875 -5.25 9.9375 C-3.75802092 6.43134917 -1.93164489 3.28379632 0 0 Z " fill="#245BA0" transform="translate(375,328)"/>
<path d="M0 0 C24.75 0 49.5 0 75 0 C69.85708788 5.14291212 57.79152813 3.16207995 51.015625 3.16796875 C49.669006 3.17118769 48.32238734 3.17455223 46.97576904 3.17805481 C44.16857084 3.18400999 41.36140328 3.18589814 38.55419922 3.18530273 C34.9608073 3.18520061 31.36761074 3.19892022 27.77426529 3.21607494 C24.99986874 3.22719272 22.22551976 3.22922211 19.45110321 3.22869301 C17.48352088 3.23044174 15.51595339 3.24127119 13.54840088 3.25224304 C12.35325867 3.24916641 11.15811646 3.24608978 9.92675781 3.24291992 C8.35078827 3.24505745 8.35078827 3.24505745 6.74298096 3.24723816 C3.98972323 2.9990737 2.3454778 2.41746397 0 1 C0 0.67 0 0.34 0 0 Z " fill="#2A62AB" transform="translate(146,276)"/>
<path d="M0 0 C2 3 2 3 2 7 C1.01 7.33 0.02 7.66 -1 8 C-1 7.01 -1 6.02 -1 5 C-7.44615591 11.05716374 -11.2026458 19.11318744 -15 27 C-15.66 27 -16.32 27 -17 27 C-17.23074219 27.80824219 -17.46148437 28.61648437 -17.69921875 29.44921875 C-19.31230704 33.85251381 -21.49465522 37.74688419 -23.8125 41.8125 C-24.23853516 42.56853516 -24.66457031 43.32457031 -25.10351562 44.10351562 C-25.96120387 45.62555543 -26.82072998 47.14656109 -27.68212891 48.66650391 C-29.80910522 52.43264685 -31.90462844 56.2162069 -34 60 C-34.66 60 -35.32 60 -36 60 C-34.35578291 54.0984351 -31.45006595 49.01261515 -28.5 43.6875 C-27.96463623 42.71490234 -27.42927246 41.74230469 -26.87768555 40.74023438 C-22.07914485 32.06346004 -17.1568125 23.46891158 -12 15 C-11.58556641 14.31808594 -11.17113281 13.63617188 -10.74414062 12.93359375 C-9.52899472 10.94791346 -8.29942729 8.9721709 -7.0625 7 C-6.69680908 6.40574219 -6.33111816 5.81148438 -5.9543457 5.19921875 C-3.34970793 1.11656931 -3.34970793 1.11656931 0 0 Z " fill="#124B91" transform="translate(262,71)"/>
<path d="M0 0 C3.6272378 3.52323098 6.91230105 7.21933141 10.125 11.125 C21.817602 25.07563416 34.66147652 36.13917757 50.3203125 45.30859375 C52.57263883 46.73025162 54.24587324 48.02207086 56 50 C44.69985974 48.46566903 34.07591676 38.26830551 25.50390625 31.23388672 C24.22978691 30.18852971 22.94422687 29.15714112 21.65625 28.12890625 C15.96646809 23.42128907 11.5426896 17.79192923 7 12 C6.29875 11.14148438 5.5975 10.28296875 4.875 9.3984375 C4.235625 8.60695313 3.59625 7.81546875 2.9375 7 C2.36902344 6.29875 1.80054687 5.5975 1.21484375 4.875 C0 3 0 3 0 0 Z " fill="#1A549C" transform="translate(106,343)"/>
<path d="M0 0 C2.96175123 0.61277612 4.38058783 1.25372522 7 3 C7 3.66 7 4.32 7 5 C7.99 5.33 8.98 5.66 10 6 C10 6.66 10 7.32 10 8 C10.54398437 8.21269531 11.08796875 8.42539063 11.6484375 8.64453125 C14.84638561 10.48786679 17.15446202 12.99294745 19.625 15.6875 C20.14626465 16.25404297 20.6675293 16.82058594 21.20458984 17.40429688 C27.85676895 24.83017309 34.66248049 33.52575108 38 43 C37.01 43.33 36.02 43.66 35 44 C34.40574219 42.99582031 33.81148438 41.99164063 33.19921875 40.95703125 C25.51569461 28.18988406 13.81764678 8.90882339 0 2 C0 1.34 0 0.68 0 0 Z " fill="#2D4B85" transform="translate(337,134)"/>
<path d="M0 0 C0.33 0 0.66 0 1 0 C0.71512839 8.73131499 -0.45438372 16.88409572 -2.34228516 25.38574219 C-3.953207 32.64717105 -5.30418866 39.94089355 -6.60473633 47.26367188 C-7.66017256 53.19226803 -8.79574657 59.09979117 -10 65 C-10.66 65 -11.32 65 -12 65 C-11.6268087 55.81949405 -9.90551406 47.06542868 -8.04296875 38.1015625 C-7.08419843 33.47752038 -6.23658432 28.84146619 -5.4375 24.1875 C-4.47203193 18.61369762 -3.46388943 13.05113564 -2.375 7.5 C-2.13523438 6.2728125 -1.89546875 5.045625 -1.6484375 3.78125 C-1 1 -1 1 0 0 Z " fill="#08478C" transform="translate(212,327)"/>
<path d="M0 0 C0.33 0 0.66 0 1 0 C2.40056993 8.66132801 1.55140684 16.71059155 0.15893555 25.28198242 C-0.190372 27.45536956 -0.50727329 29.63195154 -0.82226562 31.81054688 C-1.03974824 33.2060295 -1.25908223 34.60122514 -1.48046875 35.99609375 C-1.67535889 37.24575928 -1.87024902 38.4954248 -2.07104492 39.78295898 C-3.08307354 43.2876899 -4.21351498 44.71488945 -7 47 C-5.89153866 37.28466239 -4.72348283 27.57652656 -3.5 17.875 C-3.32247192 16.41888306 -3.32247192 16.41888306 -3.14135742 14.93334961 C-2.48168041 9.77445175 -1.59182965 4.95388364 0 0 Z " fill="#2F5FA6" transform="translate(251,136)"/>
<path d="M0 0 C0.33 0 0.66 0 1 0 C1 0.928125 1 1.85625 1 2.8125 C1.33 3.864375 1.66 4.91625 2 6 C4.73735269 7.29402127 7.13132096 8.13986123 10 9 C11.83988745 9.71246706 13.67334275 10.44176653 15.5 11.1875 C16.3559375 11.53167969 17.211875 11.87585938 18.09375 12.23046875 C18.7228125 12.48441406 19.351875 12.73835937 20 13 C20 13.66 20 14.32 20 15 C20.7115625 15.26039063 21.423125 15.52078125 22.15625 15.7890625 C33.06462253 20.43411124 41.60776217 28.87847952 50 37 C49.34 37.66 48.68 38.32 48 39 C47.47792969 38.443125 46.95585937 37.88625 46.41796875 37.3125 C34.5932598 25.05290684 20.27420354 16.14130205 4.42578125 10.0078125 C2 9 2 9 -1 7 C-1.25 3.9375 -1.25 3.9375 -1 1 C-0.67 0.67 -0.34 0.34 0 0 Z " fill="#104EA2" transform="translate(280,132)"/>
<path d="M0 0 C-2.93056217 1.95370811 -5.69958061 3.25618859 -8.9375 4.625 C-9.97777344 5.07101562 -11.01804687 5.51703125 -12.08984375 5.9765625 C-15 7 -15 7 -19 7 C-19.556875 8.794375 -19.556875 8.794375 -20.125 10.625 C-21.95366891 16.1637568 -24.3193182 21.44623478 -26.6953125 26.765625 C-28.07631918 29.86647136 -28.07631918 29.86647136 -28.4921875 32.796875 C-29 35 -29 35 -32 37 C-32.66 36.67 -33.32 36.34 -34 36 C-32.58746609 32.66490073 -31.16921415 29.33226143 -29.75 26 C-29.35425781 25.06542969 -28.95851562 24.13085938 -28.55078125 23.16796875 C-26.72486917 18.8875519 -24.86848092 14.65247498 -22.765625 10.5 C-20.96922774 7.14926599 -20.96922774 7.14926599 -20 4 C-14.08762893 0.31603894 -6.80267589 -0.28947557 0 0 Z " fill="#09468C" transform="translate(273,375)"/>
<path d="M0 0 C0.33 0.99 0.66 1.98 1 3 C-0.375 4.5 -0.375 4.5 -2 6 C-2.66 6 -3.32 6 -4 6 C-4 6.66 -4 7.32 -4 8 C-5.5390625 9.48046875 -5.5390625 9.48046875 -7.625 11.1875 C-11.08787267 14.1100663 -13.97510908 17.15830902 -16.7734375 20.71484375 C-17.17820313 21.13894531 -17.58296875 21.56304687 -18 22 C-18.66 22 -19.32 22 -20 22 C-20.268125 22.72574219 -20.53625 23.45148438 -20.8125 24.19921875 C-21.98670381 26.96864024 -23.3394324 29.30919434 -25 31.8125 C-25.515625 32.60269531 -26.03125 33.39289063 -26.5625 34.20703125 C-27.036875 34.79871094 -27.51125 35.39039063 -28 36 C-28.66 36 -29.32 36 -30 36 C-28.51010543 27.73785741 -21.66263812 19.92601663 -16 14 C-15.34 14 -14.68 14 -14 14 C-14 13.34 -14 12.68 -14 12 C-12.4609375 10.44921875 -12.4609375 10.44921875 -10.375 8.6875 C-9.65054688 8.07132813 -8.92609375 7.45515625 -8.1796875 6.8203125 C-7.46039063 6.21960938 -6.74109375 5.61890625 -6 5 C-5.38382813 4.48179687 -4.76765625 3.96359375 -4.1328125 3.4296875 C-2.76024877 2.28041165 -1.3809017 1.1392439 0 0 Z " fill="#1E4689" transform="translate(159,157)"/>
<path d="M0 0 C0.66 0 1.32 0 2 0 C2.02480062 4.32331963 2.04290758 8.64660106 2.05493164 12.9699707 C2.05994669 14.43937909 2.06676033 15.90878252 2.07543945 17.37817383 C2.08762928 19.49561795 2.09325669 21.61299583 2.09765625 23.73046875 C2.10551147 25.63928833 2.10551147 25.63928833 2.11352539 27.58666992 C1.96965539 31.91236118 1.08111882 35.82997027 0 40 C-0.66 40 -1.32 40 -2 40 C-2.74701766 37.1779333 -3.03346721 35.19010475 -2.5234375 32.29296875 C-1.93687089 28.60285194 -1.97721157 25.17164981 -2.0625 21.4375 C-2.1647253 14.13179827 -1.37820677 7.18636388 0 0 Z " fill="#2F5E99" transform="translate(393,248)"/>
<path d="M0 0 C-0.66 1.32 -1.32 2.64 -2 4 C-2 3.34 -2 2.68 -2 2 C-25.76 1.67 -49.52 1.34 -74 1 C-74 0.67 -74 0.34 -74 0 C-73.40325974 -0.01030746 -72.80651947 -0.02061493 -72.19169617 -0.03123474 C-65.87910505 -0.14093458 -59.56661118 -0.25536067 -53.25415039 -0.37231445 C-50.91042145 -0.41514939 -48.56667146 -0.4568505 -46.22290039 -0.49731445 C-42.81910712 -0.55628927 -39.415407 -0.61885026 -36.01171875 -0.68359375 C-34.90045624 -0.70424896 -33.78919373 -0.72490417 -32.64425659 -0.7461853 C-24.99775048 -0.90723931 -17.37329258 -1.23246318 -9.74894714 -1.84873962 C-5.93952995 -2.11144213 -3.22388675 -2.20243643 0 0 Z " fill="#234C8F" transform="translate(321,216)"/>
<path d="M0 0 C0.66 0.33 1.32 0.66 2 1 C2.02912348 4.72915017 2.04684037 8.4582709 2.0625 12.1875 C2.07087891 13.24259766 2.07925781 14.29769531 2.08789062 15.38476562 C2.09111328 16.40634766 2.09433594 17.42792969 2.09765625 18.48046875 C2.10289307 19.41785889 2.10812988 20.35524902 2.11352539 21.32104492 C2.00082657 23.98049477 1.59376649 26.40920573 1 29 C0.01 28.67 -0.98 28.34 -2 28 C-2.05783842 23.70838953 -2.0935412 19.41687855 -2.125 15.125 C-2.14175781 13.90167969 -2.15851563 12.67835938 -2.17578125 11.41796875 C-2.18222656 10.25136719 -2.18867187 9.08476562 -2.1953125 7.8828125 C-2.20578613 6.80402832 -2.21625977 5.72524414 -2.22705078 4.61376953 C-2 2 -2 2 0 0 Z " fill="#1E6094" transform="translate(112,242)"/>
<path d="M0 0 C0.66 0.33 1.32 0.66 2 1 C1.979375 1.804375 1.95875 2.60875 1.9375 3.4375 C1.70366379 5.93354885 1.70366379 5.93354885 3 7 C4.32774012 17.60552913 4.10882762 28.33489285 4 39 C3.67 39 3.34 39 3 39 C3 33.39 3 27.78 3 22 C2.34 22 1.68 22 1 22 C-1.35352824 15.41572457 -3.04174905 9.03518837 -2 2 C-1.34 1.34 -0.68 0.68 0 0 Z " fill="#1E4E9D" transform="translate(392,226)"/>
<path d="M0 0 C4.00871457 1.21531166 5.34488085 3.84899721 7.24804688 7.40771484 C7.61994141 8.13941895 7.99183594 8.87112305 8.375 9.625 C8.76494141 10.38119629 9.15488281 11.13739258 9.55664062 11.91650391 C15.02654937 22.75494336 19.94765415 33.64637991 20 46 C17.30214639 41.01934718 15.57072218 35.60273604 13.67578125 30.28125 C10.15605609 20.45486766 5.83050237 11.24597351 1 2 C0.67 1.34 0.34 0.68 0 0 Z " fill="#09488A" transform="translate(341,186)"/>
<path d="M0 0 C0.60336182 0.1973877 1.20672363 0.39477539 1.82836914 0.59814453 C1.35004639 0.91976562 0.87172363 1.24138672 0.37890625 1.57275391 C-11.18900487 9.24129538 -11.18900487 9.24129538 -20.74584961 19.17236328 C-22.49526311 20.92177678 -23.68399661 21.23939686 -26.10913086 21.59814453 C-27.11975586 21.59814453 -28.13038086 21.59814453 -29.17163086 21.59814453 C-25.38389193 16.65119505 -21.26136554 13.12337435 -16.23413086 9.47314453 C-15.54383789 8.96138672 -14.85354492 8.44962891 -14.14233398 7.92236328 C-12.79153942 6.92623232 -11.43444232 5.93857942 -10.07055664 4.96044922 C-8.85944354 4.0915869 -7.65856508 3.20814969 -6.47192383 2.30615234 C-2.65127812 -0.49061313 -2.65127812 -0.49061313 0 0 Z " fill="#1A4C9A" transform="translate(156.171630859375,120.40185546875)"/>
<path d="M0 0 C0.66 0 1.32 0 2 0 C-1.84118659 13.49390939 -15.30269883 26.37011282 -26 35 C-26 34.01 -26 33.02 -26 32 C-25.34 32 -24.68 32 -24 32 C-23.7525 31.4225 -23.505 30.845 -23.25 30.25 C-21.81700012 27.67060021 -20.21575324 25.93878408 -18 24 C-17.34 24 -16.68 24 -16 24 C-15.77054687 23.47019531 -15.54109375 22.94039063 -15.3046875 22.39453125 C-13.24974872 18.62304181 -10.48271862 15.38565549 -7.80859375 12.04101562 C-4.7904912 8.202678 -2.33765033 4.28931654 0 0 Z " fill="#083E86" transform="translate(346,316)"/>
<path d="M0 0 C0.99 0.33 1.98 0.66 3 1 C1.48863058 23.07394809 1.48863058 23.07394809 -2 31 C-2.33 31 -2.66 31 -3 31 C-2.88900857 27.33277098 -2.7586501 23.66646764 -2.625 20 C-2.5940625 18.97003906 -2.563125 17.94007813 -2.53125 16.87890625 C-2.30511914 10.96181529 -1.68017551 5.68254481 0 0 Z " fill="#255C9B" transform="translate(243,185)"/>
<path d="M0 0 C0.33 0.66 0.66 1.32 1 2 C1.66 2.33 2.32 2.66 3 3 C2.70230713 3.56509277 2.40461426 4.13018555 2.09790039 4.71240234 C0.75255218 7.26648851 -0.59247774 9.82074217 -1.9375 12.375 C-2.40607422 13.26445312 -2.87464844 14.15390625 -3.35742188 15.0703125 C-4.0293457 16.34648437 -4.0293457 16.34648437 -4.71484375 17.6484375 C-5.12855225 18.43395996 -5.54226074 19.21948242 -5.96850586 20.02880859 C-6.65788624 21.34621859 -7.33504671 22.67009342 -8 24 C-10.0625 24.625 -10.0625 24.625 -12 25 C-12 24.01 -12 23.02 -12 22 C-11.34 22 -10.68 22 -10 22 C-9.67 20.02 -9.34 18.04 -9 16 C-8.34 16 -7.68 16 -7 16 C-6.855625 15.4225 -6.71125 14.845 -6.5625 14.25 C-5.78125 11.125 -5.78125 11.125 -5 8 C-4.34 8 -3.68 8 -3 8 C-2.690625 6.865625 -2.38125 5.73125 -2.0625 4.5625 C-1 1 -1 1 0 0 Z " fill="#23599D" transform="translate(203,117)"/>
<path d="M0 0 C1 2 1 2 0.3125 5.5 C-1 9 -1 9 -2.98828125 9.9296875 C-5.18635743 10.83041797 -5.18635743 10.83041797 -5.90625 13.1015625 C-6.1021875 13.93429688 -6.298125 14.76703125 -6.5 15.625 C-7.78345764 20.50355724 -9.61620106 24.56120197 -12 29 C-12.33 29 -12.66 29 -13 29 C-12.55216441 22.28246613 -9.93485814 16.99234266 -7 11 C-6.54753906 10.04480469 -6.09507813 9.08960938 -5.62890625 8.10546875 C-2.26778982 1.13389491 -2.26778982 1.13389491 0 0 Z " fill="#134F93" transform="translate(102,175)"/>
<path d="M0 0 C2.96175123 0.61277612 4.38058783 1.25372522 7 3 C7 3.66 7 4.32 7 5 C7.99 5.33 8.98 5.66 10 6 C10 6.66 10 7.32 10 8 C10.87591797 8.37705078 10.87591797 8.37705078 11.76953125 8.76171875 C14.28059332 10.15577597 15.79212225 11.66221244 17.6875 13.8125 C18.28949219 14.47894531 18.89148438 15.14539063 19.51171875 15.83203125 C21.17013389 18.24783282 21.62277986 20.11803815 22 23 C19.09149079 20.09711653 16.19205229 17.18568327 13.30078125 14.265625 C11.97139924 12.92703857 10.64197129 11.58849776 9.3125 10.25 C8.63638672 9.56550781 7.96027344 8.88101563 7.26367188 8.17578125 C6.29204102 7.19931641 6.29204102 7.19931641 5.30078125 6.203125 C4.42160034 5.31608887 4.42160034 5.31608887 3.5246582 4.41113281 C2.03618182 2.90170176 2.03618182 2.90170176 0 2 C0 1.34 0 0.68 0 0 Z " fill="#22488A" transform="translate(337,134)"/>
<path d="M0 0 C4.19360449 0.67097672 7.40334352 2.8558394 11 5 C11 5.66 11 6.32 11 7 C11.515625 7.0825 12.03125 7.165 12.5625 7.25 C16.11629969 8.34347683 18.86110581 9.98636976 22 12 C22.33 12.99 22.66 13.98 23 15 C18.23175678 14.47522181 14.83204942 12.2351328 10.9375 9.625 C10.32583984 9.22539062 9.71417969 8.82578125 9.08398438 8.4140625 C2.26610888 3.93269136 2.26610888 3.93269136 0 2 C0 1.34 0 0.68 0 0 Z " fill="#194092" transform="translate(160,354)"/>
<path d="M0 0 C0.33 0 0.66 0 1 0 C1.56564068 7.13335743 0.65295418 13.68313248 -0.875 20.625 C-1.04870117 21.43114746 -1.22240234 22.23729492 -1.40136719 23.06787109 C-1.86295183 25.06309419 -2.42351304 27.03489482 -3 29 C-3.66 29.33 -4.32 29.66 -5 30 C-3.91588785 7.8317757 -3.91588785 7.8317757 0 0 Z " fill="#0B4E95" transform="translate(218,294)"/>
<path d="M0 0 C0.33 0 0.66 0 1 0 C2.04894965 4.62649316 1.82806355 7.81897123 0.5625 12.375 C0.27503906 13.43460937 -0.01242188 14.49421875 -0.30859375 15.5859375 C-0.53675781 16.38257813 -0.76492187 17.17921875 -1 18 C-3.53899138 18.9435441 -4.60909275 19.16906025 -7.140625 18.07421875 C-7.83671875 17.61660156 -8.5328125 17.15898437 -9.25 16.6875 C-9.95640625 16.23761719 -10.6628125 15.78773438 -11.390625 15.32421875 C-11.92171875 14.88722656 -12.4528125 14.45023437 -13 14 C-13 13.34 -13 12.68 -13 12 C-8.545 12.99 -8.545 12.99 -4 14 C-2.68 9.38 -1.36 4.76 0 0 Z " fill="#1B55A1" transform="translate(177,382)"/>
<path d="M0 0 C1.4306774 2.86135481 0.81123274 4.93584771 0.44140625 8.1015625 C0.30283203 9.31328125 0.16425781 10.525 0.02148438 11.7734375 C-0.20571289 13.67996094 -0.20571289 13.67996094 -0.4375 15.625 C-0.58509766 16.90375 -0.73269531 18.1825 -0.88476562 19.5 C-1.25113611 22.66733194 -1.62311401 25.83390493 -2 29 C-2.33 29 -2.66 29 -3 29 C-3.1967332 26.1670419 -3.38259641 23.33403677 -3.5625 20.5 C-3.61857422 19.70851563 -3.67464844 18.91703125 -3.73242188 18.1015625 C-4.05189484 12.90480221 -3.79686914 8.14718438 -3 3 C-3.66 2.67 -4.32 2.34 -5 2 C-3.35 1.34 -1.7 0.68 0 0 Z " fill="#1055A6" transform="translate(222,276)"/>
<path d="M0 0 C0.33 0 0.66 0 1 0 C2.32 6.93 3.64 13.86 5 21 C4.01 21 3.02 21 2 21 C1.67 21.66 1.34 22.32 1 23 C0.49356447 20.77228658 -0.0048962 18.54275924 -0.5 16.3125 C-0.7784375 15.07113281 -1.056875 13.82976562 -1.34375 12.55078125 C-2.25350115 7.62837773 -2.5879416 4.36715145 0 0 Z " fill="#1C5698" transform="translate(113,266)"/>
<path d="M0 0 C3.7184506 3.61758846 7.11633269 7.39228276 10.4375 11.375 C11.40088204 12.52226947 12.36442254 13.66940591 13.328125 14.81640625 C13.78638672 15.36312988 14.24464844 15.90985352 14.71679688 16.47314453 C17.12188446 19.33490591 19.5618237 22.16644376 22 25 C15.57852354 24.28650262 11.70875843 17.59780267 7.875 12.9375 C7.44574219 12.42123047 7.01648438 11.90496094 6.57421875 11.37304688 C5.3735382 9.92299421 4.18633818 8.46180992 3 7 C2.40445313 6.27941406 1.80890625 5.55882812 1.1953125 4.81640625 C0 3 0 3 0 0 Z " fill="#154C9B" transform="translate(106,343)"/>
<path d="M0 0 C2 3 2 3 2 7 C1.01 7.33 0.02 7.66 -1 8 C-1 7.01 -1 6.02 -1 5 C-3.99279148 7.78594628 -6.05279617 10.50934362 -8.0625 14.0625 C-9.79546581 17.11932298 -11.3867438 19.63488682 -14 22 C-13.48923027 16.81057952 -10.85307246 13.04690733 -8.125 8.75 C-7.67769531 8.0178125 -7.23039063 7.285625 -6.76953125 6.53125 C-6.33253906 5.83515625 -5.89554687 5.1390625 -5.4453125 4.421875 C-4.85000732 3.47199707 -4.85000732 3.47199707 -4.24267578 2.50292969 C-3 1 -3 1 0 0 Z " fill="#18468A" transform="translate(262,71)"/>
<path d="M0 0 C2.21518686 2.04653772 3.62958901 3.90523687 4.9375 6.6171875 C5.27523437 7.30683594 5.61296875 7.99648438 5.9609375 8.70703125 C6.30382812 9.42246094 6.64671875 10.13789063 7 10.875 C7.6855875 12.28999074 8.37304865 13.70407539 9.0625 15.1171875 C9.38863281 15.78717773 9.71476562 16.45716797 10.05078125 17.14746094 C10.87105802 18.74835089 11.80158738 20.29184395 12.75 21.8203125 C14 24 14 24 14 27 C13.34 27 12.68 27 12 27 C10.55793859 24.48168311 9.12128792 21.96052215 7.6875 19.4375 C7.28337891 18.73302734 6.87925781 18.02855469 6.46289062 17.30273438 C0 5.90072409 0 5.90072409 0 0 Z " fill="#124C8E" transform="translate(91,315)"/>
<path d="M0 0 C0 3 0 3 -1.3984375 4.40234375 C-2.05070312 4.90894531 -2.70296875 5.41554687 -3.375 5.9375 C-9.02182283 10.63306594 -13.4268138 16.29288854 -18 22 C-18.33 21.01 -18.66 20.02 -19 19 C-17.375 16.58203125 -17.375 16.58203125 -15 13.8125 C-13.75863281 12.3584375 -13.75863281 12.3584375 -12.4921875 10.875 C-11.66976562 9.92625 -10.84734375 8.9775 -10 8 C-9.32195312 7.175 -8.64390625 6.35 -7.9453125 5.5 C-7.34460938 4.778125 -6.74390625 4.05625 -6.125 3.3125 C-5.59132813 2.66925781 -5.05765625 2.02601563 -4.5078125 1.36328125 C-3 0 -3 0 0 0 Z " fill="#194F95" transform="translate(128,143)"/>
<path d="M0 0 C0.66 0 1.32 0 2 0 C1.58618768 5.63002547 1.03200141 11.14513118 -0.0625 16.6875 C-0.94351651 21.22962954 -1.17428239 25.38151655 -1 30 C-1.99 30 -2.98 30 -4 30 C-4.25645895 23.26795268 -3.28162548 17.0986393 -2 10.5 C-1.80921875 9.48679687 -1.6184375 8.47359375 -1.421875 7.4296875 C-0.95435389 4.95182561 -0.48026672 2.47541732 0 0 Z " fill="#1354A0" transform="translate(198,395)"/>
<path d="M0 0 C0.33 0 0.66 0 1 0 C2.21609806 7.42805841 2.34443638 14.76513297 0 22 C-2.08203125 24.3515625 -2.08203125 24.3515625 -4 26 C-2.07289294 8.14350797 -2.07289294 8.14350797 0 0 Z " fill="#325F9F" transform="translate(248,157)"/>
<path d="M0 0 C1.13671875 1.73046875 1.13671875 1.73046875 2 4 C1.20703125 6.11328125 1.20703125 6.11328125 -0.1875 8.3125 C-1.92926966 11.168247 -3.43265261 13.87411631 -4.625 17 C-5.07875 17.99 -5.5325 18.98 -6 20 C-6.99 20.33 -7.98 20.66 -9 21 C-8.27823039 14.14318867 -6.15004216 6.77012102 -1 2 C-0.67 1.34 -0.34 0.68 0 0 Z " fill="#23549F" transform="translate(128,191)"/>
<path d="M0 0 C0.33 0 0.66 0 1 0 C0.55447747 9.97048692 -0.83410728 19.27391571 -3 29 C-3.66 28.34 -4.32 27.68 -5 27 C-4.8686875 24.25139069 -4.62397954 21.6544108 -4.25 18.9375 C-4.15146729 18.17050781 -4.05293457 17.40351563 -3.95141602 16.61328125 C-2.0064124 2.0064124 -2.0064124 2.0064124 0 0 Z " fill="#0A5097" transform="translate(212,327)"/>
<path d="M0 0 C0.99 0.33 1.98 0.66 3 1 C3.9300889 3.7902667 4.18698769 5.76529542 4.31640625 8.66796875 C4.35830078 9.56064453 4.40019531 10.45332031 4.44335938 11.37304688 C4.48267578 12.30181641 4.52199219 13.23058594 4.5625 14.1875 C4.60568359 15.12787109 4.64886719 16.06824219 4.69335938 17.03710938 C4.79938665 19.35792854 4.90145029 21.67885325 5 24 C1.43133719 18.64700578 0.66911594 13.4484927 0.375 7.125 C0.33632812 6.43664062 0.29765625 5.74828125 0.2578125 5.0390625 C0.16451834 3.35976754 0.08121762 1.67992233 0 0 Z " fill="#1D5CA5" transform="translate(78,262)"/>
<path d="M0 0 C2.475 0.99 2.475 0.99 5 2 C3.68 2.33 2.36 2.66 1 3 C1.02835937 4.00289063 1.05671875 5.00578125 1.0859375 6.0390625 C0.99995406 10.00211744 0.45839482 13.50507753 -0.375 17.375 C-0.63023437 18.59960938 -0.88546875 19.82421875 -1.1484375 21.0859375 C-1.42945313 22.04757813 -1.71046875 23.00921875 -2 24 C-2.66 24.33 -3.32 24.66 -4 25 C-4.21908649 18.97512156 -3.49398047 13.82450494 -2 8 C-1.80921875 7.22527344 -1.6184375 6.45054688 -1.421875 5.65234375 C-0.95615457 3.76617601 -0.47925183 1.88277506 0 0 Z " fill="#154F93" transform="translate(285,106)"/>
<path d="M0 0 C2.43871357 7.31614072 0.21818574 18.31174662 -3.06640625 25.25390625 C-3.37449219 25.83011719 -3.68257813 26.40632813 -4 27 C-4.02689449 24.04160645 -4.04678741 21.08345573 -4.0625 18.125 C-4.07087891 17.28324219 -4.07925781 16.44148438 -4.08789062 15.57421875 C-4.09111328 14.76855469 -4.09433594 13.96289062 -4.09765625 13.1328125 C-4.10289307 12.38918457 -4.10812988 11.64555664 -4.11352539 10.87939453 C-4 9 -4 9 -3 7 C-2.34 7 -1.68 7 -1 7 C-1.020625 6.030625 -1.04125 5.06125 -1.0625 4.0625 C-1 1 -1 1 0 0 Z " fill="#436EAE" transform="translate(262,78)"/>
<path d="M0 0 C8.51190702 2.89898283 15.70071782 9.87337913 21 17 C18 17 18 17 16.30859375 15.53125 C15.69113281 14.8609375 15.07367188 14.190625 14.4375 13.5 C10.54601296 9.43459175 6.36165906 5.99519244 1.90625 2.56640625 C1.2771875 2.04949219 0.648125 1.53257812 0 1 C0 0.67 0 0.34 0 0 Z " fill="#0B4C97" transform="translate(309,153)"/>
<path d="M0 0 C0.33 0 0.66 0 1 0 C1.738041 15.92938497 1.738041 15.92938497 -3 22 C-3.33 22 -3.66 22 -4 22 C-3.3622098 14.47407567 -1.80110167 7.32901118 0 0 Z " fill="#0A529A" transform="translate(361,272)"/>
<path d="M0 0 C0.48984375 0.38929688 0.9796875 0.77859375 1.484375 1.1796875 C0.77152344 1.43363281 0.05867188 1.68757813 -0.67578125 1.94921875 C-7.14750773 4.26688674 -7.14750773 4.26688674 -13.453125 6.9921875 C-16.48410361 8.16746492 -17.59016622 8.46688936 -20.515625 7.1796875 C-19.855625 7.1796875 -19.195625 7.1796875 -18.515625 7.1796875 C-18.515625 6.5196875 -18.515625 5.8596875 -18.515625 5.1796875 C-15.93870143 4.11895385 -13.35620176 3.08105788 -10.765625 2.0546875 C-10.03601563 1.75175781 -9.30640625 1.44882812 -8.5546875 1.13671875 C-3.07865904 -1.00391056 -3.07865904 -1.00391056 0 0 Z " fill="#134994" transform="translate(295.515625,366.8203125)"/>
<path d="M0 0 C0.66 0.99 1.32 1.98 2 3 C1.35546875 5.3046875 1.35546875 5.3046875 0.1875 7.875 C-1.01027268 10.54852674 -1.96633865 12.79803188 -2.44921875 15.6953125 C-3 18 -3 18 -6 20 C-6.66 19.67 -7.32 19.34 -8 19 C-5.36 12.73 -2.72 6.46 0 0 Z " fill="#0C579E" transform="translate(247,392)"/>
<path d="M0 0 C0.33 0 0.66 0 1 0 C1.36903033 4.86836162 0.65862832 7.22646036 -2.25 11.125 C-2.85328125 11.95257813 -3.4565625 12.78015625 -4.078125 13.6328125 C-5.93039445 15.91426633 -7.88167591 17.96603395 -10 20 C-9.34 17.36 -8.68 14.72 -8 12 C-7.34 12 -6.68 12 -6 12 C-5.7525 11.319375 -5.505 10.63875 -5.25 9.9375 C-3.75802092 6.43134917 -1.93164489 3.28379632 0 0 Z " fill="#305A97" transform="translate(375,328)"/>
<path d="M0 0 C2.17993287 1.70603442 2.94824911 2.81014815 3.68359375 5.5078125 C4.11824132 10.30503384 4.10489819 15.06117432 4.0625 19.875 C4.05798828 20.84953125 4.05347656 21.8240625 4.04882812 22.828125 C4.03710906 25.21881434 4.02070219 27.6093744 4 30 C3.67 30 3.34 30 3 30 C0.80851064 9.46808511 0.80851064 9.46808511 0 0 Z " fill="#0858A6" transform="translate(359,228)"/>
<path d="M0 0 C-0.33 0.99 -0.66 1.98 -1 3 C-12.88 3.99 -12.88 3.99 -25 5 C-19.09959818 -0.90040182 -7.812866 -0.41525075 0 0 Z " fill="#2E5CA2" transform="translate(211,101)"/>
<path d="M0 0 C4.66081675 6.99122513 5.56168571 13.77782857 6 22 C2.90499856 15.98342392 0.54977702 9.58655235 -1 3 C-0.67 2.01 -0.34 1.02 0 0 Z " fill="#074A92" transform="translate(355,210)"/>
<path d="M0 0 C-3 2 -3 2 -5 2 C-5 2.66 -5 3.32 -5 4 C-9.873261 5.5912689 -13.80790596 6.21192221 -19 6 C-16 4 -16 4 -12 4 C-11.67 3.01 -11.34 2.02 -11 1 C-7.26562152 0.12132271 -3.83225427 -0.08912219 0 0 Z " fill="#1451A1" transform="translate(295,401)"/>
<path d="M0 0 C0.66 0 1.32 0 2 0 C3 3 3 3 1.890625 5.48046875 C1.34921875 6.37378906 0.8078125 7.26710938 0.25 8.1875 C-0.28109375 9.08855469 -0.8121875 9.98960937 -1.359375 10.91796875 C-1.90078125 11.60503906 -2.4421875 12.29210937 -3 13 C-3.99 13 -4.98 13 -6 13 C-5.67 11.35 -5.34 9.7 -5 8 C-4.34 8 -3.68 8 -3 8 C-2.690625 6.865625 -2.38125 5.73125 -2.0625 4.5625 C-1 1 -1 1 0 0 Z " fill="#224DA3" transform="translate(226,376)"/>
<path d="M0 0 C0.33 0 0.66 0 1 0 C1.37948885 4.47136866 0.18722385 7.18802719 -1.875 11.125 C-2.40867187 12.15882813 -2.94234375 13.19265625 -3.4921875 14.2578125 C-5 17 -5 17 -7 20 C-8.12055703 16.63832891 -7.97585489 16.29170668 -6.6015625 13.2421875 C-6.28703125 12.53449219 -5.9725 11.82679688 -5.6484375 11.09765625 C-5.31070312 10.36417969 -4.97296875 9.63070313 -4.625 8.875 C-4.295 8.13378906 -3.965 7.39257812 -3.625 6.62890625 C-1.16998027 1.16998027 -1.16998027 1.16998027 0 0 Z " fill="#0A488E" transform="translate(356,295)"/>
<path d="M0 0 C2 2 2 2 2.046875 4.86328125 C1.94890625 6.00152344 1.8509375 7.13976562 1.75 8.3125 C1.66234375 9.44300781 1.5746875 10.57351562 1.484375 11.73828125 C1.03011268 14.79722512 0.2814478 17.20077182 -1 20 C-1.33 20 -1.66 20 -2 20 C-1.85919445 17.22882696 -1.71256882 14.45817359 -1.5625 11.6875 C-1.52318359 10.90181641 -1.48386719 10.11613281 -1.44335938 9.30664062 C-1.40146484 8.54931641 -1.35957031 7.79199219 -1.31640625 7.01171875 C-1.27974854 6.31522217 -1.24309082 5.61872559 -1.20532227 4.90112305 C-1 3 -1 3 0 0 Z " fill="#2864A6" transform="translate(242,196)"/>
<path d="M0 0 C1.98 0.495 1.98 0.495 4 1 C3.690625 2.216875 3.38125 3.43375 3.0625 4.6875 C2.28842823 7.7782972 1.58737312 10.86734334 1 14 C0.34 13.34 -0.32 12.68 -1 12 C-0.9765625 9.1796875 -0.9765625 9.1796875 -0.625 5.875 C-0.51414063 4.77929688 -0.40328125 3.68359375 -0.2890625 2.5546875 C-0.14597656 1.29011719 -0.14597656 1.29011719 0 0 Z " fill="#264AAF" transform="translate(179,369)"/>
<path d="M0 0 C4.02792802 0.92066926 5.68463941 2.59367221 7.875 5.9375 C9.1796875 8.02734375 9.1796875 8.02734375 10 10 C9.67 10.99 9.34 11.98 9 13 C5.41193683 9.61127367 2.54315201 6.23858668 0 2 C0 1.34 0 0.68 0 0 Z " fill="#2D4F90" transform="translate(126,316)"/>
<path d="M0 0 C-5 2 -10 4 -15 6 C-14.875 4.1875 -14.875 4.1875 -14 2 C-8.73730154 -1.15761908 -5.47997781 -2.94463538 0 0 Z " fill="#145399" transform="translate(191,143)"/>
<path d="M0 0 C1.1484375 1.671875 1.1484375 1.671875 2 4 C1.1015625 6.578125 1.1015625 6.578125 -0.375 9.25 C-1.09816406 10.58804687 -1.09816406 10.58804687 -1.8359375 11.953125 C-2.22007812 12.62859375 -2.60421875 13.3040625 -3 14 C-4 11 -4 11 -4 10 C-4.33 9.34 -4.66 8.68 -5 8 C-3.94515876 4.57176596 -2.71687212 2.34638956 0 0 Z " fill="#164F9D" transform="translate(299,249)"/>
<path d="M0 0 C-2.94557917 1.96371945 -5.75038726 3.29765337 -9 4.6875 C-10.051875 5.14511719 -11.10375 5.60273438 -12.1875 6.07421875 C-15 7 -15 7 -18 6 C-17.01 5.34 -16.02 4.68 -15 4 C-15.33 3.34 -15.66 2.68 -16 2 C-10.54538831 0.61470179 -5.63281599 -0.2396943 0 0 Z " fill="#1B5096" transform="translate(273,375)"/>
<path d="M0 0 C1.82421875 0.22265625 1.82421875 0.22265625 4 1 C5.51953125 2.99609375 5.51953125 2.99609375 6.8125 5.4375 C7.25207031 6.24058594 7.69164063 7.04367187 8.14453125 7.87109375 C8.42683594 8.57363281 8.70914063 9.27617187 9 10 C8.67 10.66 8.34 11.32 8 12 C4.3392481 10.77974937 4.07660559 9.873509 2.3125 6.5625 C1.87550781 5.75941406 1.43851562 4.95632813 0.98828125 4.12890625 C0 2 0 2 0 0 Z " fill="#214C93" transform="translate(120,305)"/>
<path d="M0 0 C0 0.66 0 1.32 0 2 C-2.30078125 3.7265625 -2.30078125 3.7265625 -5.3125 5.625 C-6.29863281 6.25664062 -7.28476563 6.88828125 -8.30078125 7.5390625 C-11 9 -11 9 -14 9 C-14 8.34 -14 7.68 -14 7 C-11.4453125 5.2734375 -11.4453125 5.2734375 -8.125 3.375 C-7.03445312 2.74335938 -5.94390625 2.11171875 -4.8203125 1.4609375 C-2 0 -2 0 0 0 Z " fill="#1A4A83" transform="translate(175,148)"/>
<path d="M0 0 C0.66 0.33 1.32 0.66 2 1 C1.34938905 2.67299959 0.67966676 4.33859237 0 6 C-0.28875 6.7425 -0.5775 7.485 -0.875 8.25 C-2 10 -2 10 -4.125 10.75 C-5.053125 10.87375 -5.053125 10.87375 -6 11 C-6 10.01 -6 9.02 -6 8 C-5.34 8 -4.68 8 -4 8 C-3.896875 7.05125 -3.79375 6.1025 -3.6875 5.125 C-3 2 -3 2 0 0 Z " fill="#1F4C94" transform="translate(197,131)"/>
<path d="M0 0 C4.56454251 0.54339792 7.9728176 1.79463821 12 4 C8.18243176 5.37432457 4.92744671 4.67975039 1 4 C0.67 4.99 0.34 5.98 0 7 C-0.33 5.68 -0.66 4.36 -1 3 C-0.01 2.67 0.98 2.34 2 2 C1.34 1.34 0.68 0.68 0 0 Z " fill="#2D609D" transform="translate(287,106)"/>
<path d="M0 0 C0.33 0 0.66 0 1 0 C2.20539165 4.94210576 1.79432587 8.24503645 0 13 C-1.625 14.9375 -1.625 14.9375 -3 16 C-3.45496035 10.23716896 -1.79099852 5.39431697 0 0 Z " fill="#305BA4" transform="translate(177,382)"/>
<path d="M0 0 C0.33 0 0.66 0 1 0 C1.19672365 1.72814161 1.38196799 3.45759197 1.5625 5.1875 C1.66691406 6.15042969 1.77132812 7.11335937 1.87890625 8.10546875 C1.99758751 10.94233377 1.67765639 13.25423671 1 16 C0.67 16 0.34 16 0 16 C0 14.35 0 12.7 0 11 C-0.66 11 -1.32 11 -2 11 C-1 3.57142857 -1 3.57142857 0 0 Z " fill="#1E59A0" transform="translate(251,136)"/>
<path d="M0 0 C-12.66176471 4.32352941 -12.66176471 4.32352941 -18 4 C-14.90470518 1.33643661 -12.44670482 0.42638285 -8.4375 -0.25 C-7.48746094 -0.42015625 -6.53742188 -0.5903125 -5.55859375 -0.765625 C-3 -1 -3 -1 0 0 Z " fill="#2863A1" transform="translate(283,407)"/>
<path d="M0 0 C0.66 0 1.32 0 2 0 C2 2.97 2 5.94 2 9 C1.34 7.68 0.68 6.36 0 5 C-1.65 6.98 -3.3 8.96 -5 11 C-5.33 10.34 -5.66 9.68 -6 9 C-5.05016642 7.49460339 -4.08988109 5.99579653 -3.125 4.5 C-2.59132813 3.6646875 -2.05765625 2.829375 -1.5078125 1.96875 C-0.76144531 0.99421875 -0.76144531 0.99421875 0 0 Z " fill="#2761AD" transform="translate(259,76)"/>
<path d="M0 0 C2.92586433 1.46293216 3.05946588 3.40270098 4.125 6.4375 C4.47820312 7.42621094 4.83140625 8.41492188 5.1953125 9.43359375 C6 12 6 12 6 14 C5.01 14 4.02 14 3 14 C-0.44419134 4.58997722 -0.44419134 4.58997722 0 0 Z " fill="#10498E" transform="translate(86,300)"/>
<path d="M0 0 C0.66 0.33 1.32 0.66 2 1 C1.6390625 1.60328125 1.278125 2.2065625 0.90625 2.828125 C0.4421875 3.62734375 -0.021875 4.4265625 -0.5 5.25 C-0.9640625 6.03890625 -1.428125 6.8278125 -1.90625 7.640625 C-3.28038776 10.17140893 -3.28038776 10.17140893 -3 14 C-3.99 14 -4.98 14 -6 14 C-5.05944297 8.31953056 -4.13782924 4.27575688 0 0 Z " fill="#144C8C" transform="translate(151,262)"/>
<path d="M0 0 C1.5625 1.125 1.5625 1.125 3 3 C2.86413466 6.26076816 2.69176508 8.24913941 0.4453125 10.6875 C-0.03164062 11.120625 -0.50859375 11.55375 -1 12 C-1.02712066 10.56260487 -1.04645067 9.12506137 -1.0625 7.6875 C-1.07410156 6.88699219 -1.08570312 6.08648437 -1.09765625 5.26171875 C-1 3 -1 3 0 0 Z " fill="#2054A8" transform="translate(113,230)"/>
<path d="M0 0 C3.74525799 3.74525799 3.68909949 7.98270909 4 13 C3.01 13 2.02 13 1 13 C-0.10228696 8.59085217 -0.07654536 4.51617599 0 0 Z " fill="#295F9C" transform="translate(388,214)"/>
<path d="M0 0 C3 1 3 1 5 4 C5.4140625 6.26171875 5.4140625 6.26171875 5.625 8.6875 C5.69976562 9.49574219 5.77453125 10.30398437 5.8515625 11.13671875 C5.92503906 12.05904297 5.92503906 12.05904297 6 13 C3.1251845 10.28623859 1.56683293 7.65594351 0 4 C0 2.68 0 1.36 0 0 Z " fill="#2B5193" transform="translate(373,176)"/>
<path d="M0 0 C1.25 1.5625 1.25 1.5625 2 4 C0.93237266 6.57001015 -0.46544943 8.6530403 -2 11 C-2.66 11 -3.32 11 -4 11 C-3.48964169 6.6109185 -2.47785723 3.66291938 0 0 Z " fill="#234793" transform="translate(252,332)"/>
<path d="M0 0 C0.66 0 1.32 0 2 0 C1.54663921 4.87362847 0.2910841 7.39042389 -3 11 C-3.66 10.67 -4.32 10.34 -5 10 C-3.66749209 6.4124787 -2.169283 3.1635377 0 0 Z " fill="#2C5697" transform="translate(317,218)"/>
<path d="M0 0 C0.66 0 1.32 0 2 0 C2.05447047 1.41623216 2.09300508 2.83308191 2.125 4.25 C2.14820313 5.03890625 2.17140625 5.8278125 2.1953125 6.640625 C1.9828378 9.20731941 1.28654105 10.7916067 0 13 C-0.33 13 -0.66 13 -1 13 C-0.67 8.71 -0.34 4.42 0 0 Z " fill="#0A4789" transform="translate(214,311)"/>
<path d="M0 0 C2.97344611 2.73719971 3.93770336 5.07767394 5 9 C5 9.99 5 10.98 5 12 C3.046875 11.3203125 3.046875 11.3203125 1 10 C0.390625 7.6171875 0.390625 7.6171875 0.25 4.875 C0.19328125 3.96492187 0.1365625 3.05484375 0.078125 2.1171875 C0.05234375 1.41851562 0.0265625 0.71984375 0 0 Z " fill="#2A4AAA" transform="translate(378,183)"/>
<path d="M0 0 C1 2 1 2 0.25 5.5 C-1 9 -1 9 -4 11 C-4.17754126 7.09409237 -4.20731737 4.31097606 -2 1 C-1.34 0.67 -0.68 0.34 0 0 Z " fill="#16569E" transform="translate(102,175)"/>
<path d="M0 0 C-1.28716647 1.00578589 -2.57988658 2.00446798 -3.875 3 C-4.95394531 3.8353125 -4.95394531 3.8353125 -6.0546875 4.6875 C-8 6 -8 6 -10 6 C-9.875 4.1875 -9.875 4.1875 -9 2 C-3.81203008 -1.27067669 -3.81203008 -1.27067669 0 0 Z " fill="#2E65A2" transform="translate(336,379)"/>
<path d="M0 0 C3.79620155 1.26540052 4.48678188 2.78218431 6.6875 6.0625 C7.31011719 6.98160156 7.93273437 7.90070313 8.57421875 8.84765625 C9.04472656 9.55792969 9.51523437 10.26820313 10 11 C9.67 11.66 9.34 12.32 9 13 C7.4941255 11.21326795 5.9954515 9.42046492 4.5 7.625 C3.6646875 6.62726563 2.829375 5.62953125 1.96875 4.6015625 C0 2 0 2 0 0 Z " fill="#063780" transform="translate(331,172)"/>
<path d="M0 0 C1.98128482 3.26911995 2.17354387 5.41461582 1.75 9.1875 C1.66234375 10.06792969 1.5746875 10.94835937 1.484375 11.85546875 C1.32453125 12.56316406 1.1646875 13.27085937 1 14 C0.01 14.495 0.01 14.495 -1 15 C-1.02703381 13.06257659 -1.04641125 11.12504521 -1.0625 9.1875 C-1.07410156 8.10855469 -1.08570313 7.02960938 -1.09765625 5.91796875 C-1 3 -1 3 0 0 Z " fill="#2A4CB2" transform="translate(253,126)"/>
<path d="M0 0 C0.33 0.99 0.66 1.98 1 3 C-0.375 4.5 -0.375 4.5 -2 6 C-2.66 6 -3.32 6 -4 6 C-4 6.66 -4 7.32 -4 8 C-4.99 8 -5.98 8 -7 8 C-5.50902342 4.2047869 -3.24299151 2.38957269 0 0 Z " fill="#1A4395" transform="translate(159,157)"/>
<path d="M0 0 C0.66 1.32 1.32 2.64 2 4 C0.35 6.31 -1.3 8.62 -3 11 C-4 7 -4 7 -3.22265625 5.078125 C-1.61132812 2.5390625 -1.61132812 2.5390625 0 0 Z " fill="#2E50A0" transform="translate(247,341)"/>
<path d="M0 0 C3.2441189 1.04275251 4.60194664 2.61240491 6.3125 5.4375 C8 9 8 9 7 12 C6.20602761 10.75146327 5.41492783 9.50109957 4.625 8.25 C4.18414062 7.55390625 3.74328125 6.8578125 3.2890625 6.140625 C2.08119094 4.13482617 1.01612263 2.10821704 0 0 Z " fill="#043A81" transform="translate(341,186)"/>
<path d="M0 0 C0 0.66 0 1.32 0 2 C-6.4 5.07692308 -6.4 5.07692308 -9.4375 4.6875 C-9.953125 4.460625 -10.46875 4.23375 -11 4 C-10.34 4 -9.68 4 -9 4 C-9 3.34 -9 2.68 -9 2 C-3.375 0 -3.375 0 0 0 Z " fill="#174EA0" transform="translate(286,370)"/>
<path d="M0 0 C2.62002725 2.37050084 4.35819909 4.87276017 6 8 C6 8.99 6 9.98 6 11 C5.34 11 4.68 11 4 11 C0 4.5 0 4.5 0 0 Z " fill="#104385" transform="translate(99,331)"/>
<path d="M0 0 C0.33 0 0.66 0 1 0 C1.66 3.63 2.32 7.26 3 11 C2.01 11 1.02 11 0 11 C-0.33 11.66 -0.66 12.32 -1 13 C-0.67 8.71 -0.34 4.42 0 0 Z " fill="#174CA1" transform="translate(115,276)"/>
<path d="M0 0 C0.33 0.99 0.66 1.98 1 3 C-0.375 4.5 -0.375 4.5 -2 6 C-2.66 6 -3.32 6 -4 6 C-4 6.66 -4 7.32 -4 8 C-4.99 7.67 -5.98 7.34 -7 7 C-3.375 1.125 -3.375 1.125 0 0 Z " fill="#1B589D" transform="translate(158,254)"/>
<path d="M0 0 C3.96 1.98 7.92 3.96 12 6 C12 6.66 12 7.32 12 8 C11.01 8 10.02 8 9 8 C9 7.34 9 6.68 9 6 C8.443125 5.896875 7.88625 5.79375 7.3125 5.6875 C4.5230899 4.85821592 2.3860936 3.65700944 0 2 C0 1.34 0 0.68 0 0 Z " fill="#13549F" transform="translate(315,120)"/>
<path d="M0 0 C1.90318884 2.85478326 2.4619099 4.41941308 3.125 7.6875 C3.29257813 8.49574219 3.46015625 9.30398438 3.6328125 10.13671875 C3.75398438 10.75160156 3.87515625 11.36648438 4 12 C3.01 12 2.02 12 1 12 C-0.3271261 8.0186217 -0.06915913 4.14954773 0 0 Z " fill="#135098" transform="translate(83,287)"/>
<path d="M0 0 C2 2 2 2 2.1875 4.4375 C2 7 2 7 1 10 C0.34 10 -0.32 10 -1 10 C-2.15837626 5.94568308 -1.83691257 3.78187881 0 0 Z " fill="#2F5BA2" transform="translate(392,278)"/>
<path d="M0 0 C1.39195915 4.17587745 -0.17676781 6.13474776 -2 10 C-2.66 10 -3.32 10 -4 10 C-5 7 -5 7 -4.25 5 C-3.01451365 3.02322184 -1.71960324 1.56327567 0 0 Z " fill="#2A5692" transform="translate(296,256)"/>
<path d="M0 0 C0.66 0 1.32 0 2 0 C2.75 1.6875 2.75 1.6875 3 4 C1.0625 6.75 1.0625 6.75 -1 9 C-1.80967438 6.08517222 -2.21845993 4.53886783 -1.0625 1.6875 C-0.711875 1.130625 -0.36125 0.57375 0 0 Z " fill="#1E4DA1" transform="translate(307,234)"/>
<path d="M0 0 C3.28788824 3.11016455 5.83735988 6.01618925 8 10 C4.20401451 8.50871999 2.28279601 6.34266559 0 3 C0 2.01 0 1.02 0 0 Z " fill="#0F4186" transform="translate(106,343)"/>
<path d="M0 0 C2.96175123 0.61277612 4.38058783 1.25372522 7 3 C7 3.99 7 4.98 7 6 C4.50638429 4.79618552 2.31856917 3.54571278 0 2 C0 1.34 0 0.68 0 0 Z " fill="#163E81" transform="translate(160,354)"/>
<path d="M0 0 C0.33 0 0.66 0 1 0 C2.05699482 5.28497409 2.05699482 5.28497409 2 8 C0.0625 10.5 0.0625 10.5 -2 12 C-1 3.42857143 -1 3.42857143 0 0 Z " fill="#38679C" transform="translate(246,171)"/>
<path d="M0 0 C0.66 0.66 1.32 1.32 2 2 C-1.465 4.97 -1.465 4.97 -5 8 C-5.33 7.01 -5.66 6.02 -6 5 C-4.02 3.35 -2.04 1.7 0 0 Z " fill="#153F7A" transform="translate(151,164)"/>
<path d="M0 0 C1.875 0.5625 1.875 0.5625 4 2 C5.25 5.625 5.25 5.625 6 9 C0.42857143 3.85714286 0.42857143 3.85714286 0 0 Z " fill="#264796" transform="translate(353,148)"/>
<path d="M0 0 C-0.33 1.65 -0.66 3.3 -1 5 C-1.66 4.67 -2.32 4.34 -3 4 C-3 3.34 -3 2.68 -3 2 C-5.97 2 -8.94 2 -12 2 C-12 1.67 -12 1.34 -12 1 C-10.37512529 0.83211627 -8.75009558 0.66573213 -7.125 0.5 C-6.22007812 0.4071875 -5.31515625 0.314375 -4.3828125 0.21875 C-2 0 -2 0 0 0 Z " fill="#26468E" transform="translate(213,101)"/>
<path d="M0 0 C2 3 2 3 2 7 C1.01 7.33 0.02 7.66 -1 8 C-1.33 5.69 -1.66 3.38 -2 1 C-1.34 0.67 -0.68 0.34 0 0 Z " fill="#264C98" transform="translate(262,71)"/>
<path d="M0 0 C-0.33 0.66 -0.66 1.32 -1 2 C-9.10332103 3.46125461 -9.10332103 3.46125461 -13 2 C-8.46298506 0.54815522 -4.81938524 -0.23509196 0 0 Z " fill="#1D5595" transform="translate(289,404)"/>
<path d="M0 0 C0.33 0 0.66 0 1 0 C1.33 1.98 1.66 3.96 2 6 C2.33 6 2.66 6 3 6 C3 7.98 3 9.96 3 12 C2.01 11.67 1.02 11.34 0 11 C0 7.37 0 3.74 0 0 Z " fill="#356EB5" transform="translate(78,251)"/>
<path d="M0 0 C1 4 1 4 0 7 C-0.66 7 -1.32 7 -2 7 C-2 7.66 -2 8.32 -2 9 C-2.99 8.67 -3.98 8.34 -5 8 C-3.35 5.36 -1.7 2.72 0 0 Z " fill="#205497" transform="translate(247,91)"/>
<path d="M0 0 C-2.66666667 2 -5.33333333 4 -8 6 C-8 4.35 -8 2.7 -8 1 C-5.29120665 -0.35439668 -2.99066732 -0.06501451 0 0 Z " fill="#0B3E80" transform="translate(261,378)"/>
<path d="M0 0 C0.99 0.33 1.98 0.66 3 1 C1.515 3.475 1.515 3.475 0 6 C-0.99 5.67 -1.98 5.34 -3 5 C-2.625 3.0625 -2.625 3.0625 -2 1 C-1.34 0.67 -0.68 0.34 0 0 Z " fill="#184B9B" transform="translate(272,299)"/>
<path d="M0 0 C0.66 0 1.32 0 2 0 C1.5206753 4.31392226 0.2542015 6.16569547 -3 9 C-2.44271087 5.65626525 -1.64826111 2.96687001 0 0 Z " fill="#10428D" transform="translate(174,222)"/>
<path d="M0 0 C1.60080151 4.00200378 0.29279692 7.04556236 -1 11 C-1.33 11 -1.66 11 -2 11 C-2.25 3.375 -2.25 3.375 0 0 Z " fill="#104C99" transform="translate(85,214)"/>
<path d="M0 0 C2.64 0.66 5.28 1.32 8 2 C7.01 3.485 7.01 3.485 6 5 C4.02 4.01 2.04 3.02 0 2 C0 1.34 0 0.68 0 0 Z " fill="#1F5DA6" transform="translate(164,394)"/>
<path d="M0 0 C0.66 0 1.32 0 2 0 C0.79618552 2.49361571 -0.45428722 4.68143083 -2 7 C-2.99 6.67 -3.98 6.34 -5 6 C-3.38405168 3.95880212 -1.7143618 1.95927063 0 0 Z " fill="#0E458E" transform="translate(340,326)"/>
<path d="M0 0 C0.99 0 1.98 0 3 0 C3.33 1.32 3.66 2.64 4 4 C3.34 4 2.68 4 2 4 C1.67 4.99 1.34 5.98 1 7 C0 6 0 6 -0.0625 2.9375 C-0.041875 1.968125 -0.02125 0.99875 0 0 Z " fill="#274F99" transform="translate(115,287)"/>
<path d="M0 0 C0.99 0.33 1.98 0.66 3 1 C1.68 3.31 0.36 5.62 -1 8 C-1.66 7.67 -2.32 7.34 -3 7 C-1.125 2.25 -1.125 2.25 0 0 Z " fill="#155895" transform="translate(106,166)"/>
<path d="M0 0 C0.99 0.33 1.98 0.66 3 1 C0.03 3.475 0.03 3.475 -3 6 C-3.33 5.01 -3.66 4.02 -4 3 C-2.1875 1.4375 -2.1875 1.4375 0 0 Z " fill="#16498A" transform="translate(139,131)"/>
<path d="M0 0 C0.33 0 0.66 0 1 0 C1.33 1.98 1.66 3.96 2 6 C0.35 6.33 -1.3 6.66 -3 7 C-2.01 4.69 -1.02 2.38 0 0 Z " fill="#0A478D" transform="translate(242,405)"/>
<path d="M0 0 C-0.33 0.99 -0.66 1.98 -1 3 C-3.5625 4.1875 -3.5625 4.1875 -6 5 C-5.625 3.0625 -5.625 3.0625 -5 1 C-3 0 -3 0 0 0 Z " fill="#13448E" transform="translate(182,144)"/>
<path d="" fill="#008080" transform="translate(0,0)"/>
</svg>
